<svg width="31" height="30" viewBox="0 0 31 30" fill="none" xmlns="http://www.w3.org/2000/svg">
<g clip-path="url(#clip0_14_491)">
<path d="M0.719971 0H30.72V30H0.719971V0Z" fill="#FF0066"/>
<path d="M10.9284 9.65382C11.8773 9.63999 12.6367 8.86198 12.6275 7.913C12.6183 6.9639 11.844 6.20077 10.8949 6.20534C9.94583 6.20991 9.17895 6.98042 9.17884 7.92952C9.17961 8.15788 9.22558 8.38383 9.31409 8.59434C9.4026 8.80485 9.53191 8.99576 9.69455 9.15607C9.8572 9.31637 10.05 9.44289 10.2617 9.52834C10.4735 9.61379 10.7001 9.65647 10.9284 9.65394V9.65382ZM7.30079 18.8855C7.20148 19.3101 7.1496 19.7444 7.1461 20.1804C7.1461 21.6984 7.96923 22.7063 9.71884 22.7063C11.1696 22.7063 12.3468 21.8447 13.1929 20.4528L12.6756 22.5287H15.5556L17.2033 15.9287C17.6148 14.2559 18.4116 13.3884 19.6212 13.3884C20.5727 13.3884 21.1644 13.9799 21.1644 14.958C21.1691 15.2714 21.1258 15.5839 21.036 15.8843L20.1875 18.9191C20.0662 19.3371 20.0056 19.7703 20.0077 20.2055C20.0077 21.6455 20.8561 22.7016 22.6308 22.7016C24.1488 22.7016 25.3584 21.7247 26.0269 19.3835L24.8952 18.9455C24.3288 20.5151 23.8405 20.7982 23.4552 20.7982C23.07 20.7982 22.8624 20.5416 22.8624 20.0267C22.8735 19.7565 22.9166 19.4886 22.9908 19.2286L23.8152 16.2708C24.0003 15.6627 24.0957 15.0308 24.0984 14.3951C24.0984 12.1823 22.7604 11.028 21.1392 11.028C19.6212 11.028 18.0781 12.3971 17.3064 13.8384L17.8716 11.2511H13.4735L12.8556 13.5311H14.9148L13.6477 18.5999C12.6516 20.8128 10.8229 20.8487 10.5936 20.7972C10.2168 20.7119 9.97677 20.5691 9.97677 20.0771C9.98778 19.6787 10.0483 19.2834 10.1568 18.8999L12.0864 11.2451H7.20001L6.58325 13.5251H8.61481L7.30079 18.8855V18.8855Z" fill="white"/>
</g>
<defs>
<clipPath id="clip0_14_491">
<rect width="30" height="30" fill="white" transform="translate(0.719971)"/>
</clipPath>
</defs>
</svg>
