<svg width="32" height="30" viewBox="0 0 32 30" fill="none" xmlns="http://www.w3.org/2000/svg">
<g clip-path="url(#clip0_14_494)">
<path d="M26.34 0H5.81997C3.00332 0 0.719971 2.28335 0.719971 5.1V24.852C0.719971 27.6687 3.00332 29.952 5.81997 29.952H26.34C29.1566 29.952 31.44 27.6687 31.44 24.852V5.1C31.44 2.28335 29.1566 0 26.34 0Z" fill="#330000"/>
<path d="M15.6065 17.9747H10.8461L9.87744 20.9835C9.86426 21.0384 9.83235 21.0869 9.7872 21.1208C9.74205 21.1547 9.6865 21.1717 9.63012 21.169H7.21896C7.08156 21.169 7.03344 21.0934 7.07472 20.9422L11.1964 9.07205C11.2375 8.94845 11.2788 8.80769 11.32 8.64965C11.374 8.37461 11.4016 8.09525 11.4024 7.81505C11.3996 7.79545 11.4014 7.77547 11.4076 7.75668C11.4139 7.7379 11.4244 7.72083 11.4384 7.70682C11.4524 7.69281 11.4695 7.68226 11.4883 7.67599C11.5071 7.66972 11.527 7.6679 11.5466 7.67069H14.8234C14.9194 7.67069 14.9743 7.70513 14.9882 7.77389L19.6662 20.9629C19.7075 21.1004 19.6662 21.1691 19.5426 21.169H16.8635C16.8175 21.1741 16.7712 21.1623 16.7333 21.1357C16.6953 21.1092 16.6684 21.0697 16.6574 21.0248L15.6065 17.9747V17.9747ZM11.5879 15.3782H14.844L14.7976 15.2249L14.723 14.9823L14.6699 14.8119L14.585 14.5436L14.4047 13.9787L14.246 13.478L13.8341 12.1736C13.7315 11.8493 13.6331 11.5238 13.5389 11.197L13.4635 10.9318L13.3754 10.6183L13.241 10.1323L13.2158 10.0407H13.1953C13.0922 10.5353 12.9666 11.0251 12.819 11.5083L12.5132 12.4918L12.345 13.0352L12.1752 13.5853C12.1445 13.6846 12.114 13.7829 12.0834 13.88L11.9922 14.1677L11.9015 14.4488L11.8112 14.7229L11.7215 14.9901C11.6917 15.0781 11.662 15.1648 11.6323 15.2505L11.5879 15.3782V15.3782ZM22.448 9.85517C22.2379 9.86361 22.0283 9.82759 21.833 9.74947C21.6376 9.67135 21.461 9.55288 21.3146 9.40181C21.1687 9.24419 21.0553 9.05927 20.981 8.85767C20.9067 8.65608 20.873 8.44179 20.8818 8.22713C20.8743 8.01463 20.9118 7.80293 20.9917 7.60588C21.0716 7.40882 21.1921 7.23083 21.3455 7.08353C21.6413 6.79957 22.0352 6.64066 22.4453 6.63989L22.4892 6.64037C22.9838 6.64037 23.372 6.78797 23.6537 7.08341C23.7958 7.23692 23.9063 7.41695 23.9788 7.6132C24.0513 7.80946 24.0843 8.01808 24.0761 8.22713C24.0847 8.44265 24.05 8.6577 23.9738 8.85952C23.8977 9.06133 23.7818 9.24579 23.633 9.40193C23.4828 9.55001 23.3045 9.66653 23.1085 9.74464C22.9126 9.82275 22.703 9.86086 22.4921 9.85673L22.448 9.85517V9.85517ZM21.026 20.9629V11.1123C21.026 10.9887 21.0808 10.9268 21.1909 10.9268H23.7258C23.8356 10.9268 23.8906 10.9886 23.8907 11.1123V20.9629C23.8907 21.1004 23.8357 21.1691 23.7258 21.169H21.2116C21.0944 21.169 21.0328 21.1073 21.0266 20.984L21.026 20.9629Z" fill="#FF9A00"/>
</g>
<defs>
<clipPath id="clip0_14_494">
<rect width="30.72" height="30" fill="white" transform="translate(0.719971)"/>
</clipPath>
</defs>
</svg>
