<svg width="20" height="30" viewBox="0 0 20 30" fill="none" xmlns="http://www.w3.org/2000/svg">
<g clip-path="url(#clip0_14_482)">
<path d="M5 30C7.76 30 10 27.76 10 25V20H5C2.24 20 0 22.24 0 25C0 27.76 2.24 30 5 30Z" fill="#0ACF83"/>
<path d="M0 15C0 12.24 2.24 10 5 10H10V20H5C2.24 20 0 17.76 0 15Z" fill="#A259FF"/>
<path d="M0 5C0 2.24 2.24 0 5 0H10V10H5C2.24 10 0 7.76 0 5Z" fill="#F24E1E"/>
<path d="M10 0H15C17.76 0 20 2.24 20 5C20 7.76 17.76 10 15 10H10V0Z" fill="#FF7262"/>
<path d="M20 15C20 17.76 17.76 20 15 20C12.24 20 10 17.76 10 15C10 12.24 12.24 10 15 10C17.76 10 20 12.24 20 15Z" fill="#1ABCFE"/>
</g>
<defs>
<clipPath id="clip0_14_482">
<rect width="20" height="30" fill="white"/>
</clipPath>
</defs>
</svg>
