<svg width="31" height="30" viewBox="0 0 31 30" fill="none" xmlns="http://www.w3.org/2000/svg">
<g clip-path="url(#clip0_14_488)">
<path d="M25.62 0H5.1C2.28335 0 0 2.28335 0 5.1V24.852C0 27.6687 2.28335 29.952 5.1 29.952H25.62C28.4367 29.952 30.72 27.6687 30.72 24.852V5.1C30.72 2.28335 28.4367 0 25.62 0Z" fill="#001E36"/>
<path d="M6.91724 21.0042V7.83568C6.91724 7.73968 6.95852 7.69144 7.04096 7.69144L7.1714 7.69108L7.39436 7.68868L7.7042 7.68256L8.7422 7.6606L9.8552 7.63996C10.2466 7.63324 10.6347 7.62964 11.0194 7.62964C12.0634 7.62964 12.9427 7.7602 13.6573 8.0212C14.3019 8.23924 14.8897 8.59827 15.3781 9.07216C15.7921 9.48295 16.112 9.97868 16.3158 10.5251C16.5085 11.0569 16.6062 11.6184 16.6044 12.184C16.6044 13.2833 16.3501 14.19 15.8418 14.9043C15.3446 15.6011 14.6511 16.134 13.8498 16.435L13.781 16.4602C12.9442 16.7723 12.0176 16.8851 11.0013 16.8922L10.8434 16.8927L10.609 16.8915L10.4908 16.8898L10.3591 16.8867L10.2796 16.8836L10.2314 16.881L10.1127 16.8767L9.96764 16.8737L9.74924 16.8722L9.70064 16.872V20.9836C9.70425 21.0088 9.70194 21.0345 9.69389 21.0587C9.68585 21.0828 9.67229 21.1048 9.65428 21.1228C9.63628 21.1408 9.61433 21.1543 9.59017 21.1624C9.56602 21.1704 9.54032 21.1727 9.51512 21.1691H7.0616C6.96524 21.1691 6.91724 21.1144 6.91724 21.0042V21.0042ZM9.70076 10.1644V14.4594C9.86523 14.4727 10.0302 14.4796 10.1952 14.4801H10.8753C11.3442 14.4785 11.8105 14.4087 12.2593 14.2728L12.3488 14.2449C12.7571 14.1236 13.122 13.8875 13.3999 13.5647C13.6581 13.2602 13.7919 12.8405 13.8012 12.3057L13.8018 12.2458C13.8126 11.8472 13.7089 11.4538 13.5028 11.1124C13.2863 10.7822 12.9733 10.5268 12.6064 10.3808C12.1274 10.1946 11.6157 10.107 11.102 10.1232L10.8406 10.124L10.6758 10.1254L10.5184 10.1274L10.2964 10.1318L10.1344 10.1363L10.0503 10.1394L9.93788 10.1447L9.84212 10.1506L9.78752 10.1549L9.74036 10.1595L9.7196 10.1619L9.70076 10.1644V10.1644ZM24.5724 13.6785C24.2129 13.4937 23.8315 13.355 23.4374 13.2654L23.3462 13.2458C22.9126 13.1463 22.4699 13.0914 22.0251 13.0822L21.914 13.0809C21.6532 13.0738 21.3929 13.1051 21.1412 13.1736C20.981 13.2093 20.8385 13.3005 20.7392 13.4312C20.672 13.5357 20.6363 13.6573 20.6362 13.7816C20.64 13.9021 20.6834 14.0179 20.7598 14.1112C20.8692 14.2391 21.0007 14.3463 21.148 14.4276L21.1927 14.4513C21.4865 14.6095 21.7892 14.7505 22.0994 14.8737C22.791 15.1052 23.4519 15.4201 24.0674 15.8114C24.4868 16.076 24.8338 16.4408 25.0773 16.8728C25.282 17.2818 25.3846 17.7343 25.3761 18.1916C25.3884 18.7955 25.2159 19.3888 24.8815 19.8918C24.5235 20.4024 24.0263 20.7994 23.4492 21.0354C22.8447 21.3011 22.1024 21.4383 21.2223 21.4473L21.1309 21.4478C20.5853 21.4533 20.0405 21.4055 19.5042 21.3052L19.3894 21.2829C18.9379 21.2001 18.4983 21.0616 18.0808 20.8707C18.0389 20.849 18.0034 20.8166 17.9781 20.7768C17.9527 20.7369 17.9384 20.6911 17.9366 20.6439V18.3977C17.9341 18.3759 17.9376 18.3539 17.9467 18.3339C17.9558 18.3139 17.9701 18.2968 17.9882 18.2843C18.0059 18.2743 18.0262 18.27 18.0464 18.2718C18.0667 18.2736 18.0859 18.2816 18.1015 18.2946C18.5945 18.5854 19.1299 18.7974 19.6882 18.9232C20.1804 19.0466 20.6853 19.1123 21.1927 19.119C21.6734 19.119 22.0272 19.0571 22.254 18.9335C22.3564 18.8866 22.443 18.8111 22.5034 18.716C22.5637 18.6209 22.5952 18.5103 22.594 18.3977C22.594 18.2194 22.491 18.0476 22.2849 17.8826C22.1985 17.8134 22.0746 17.7382 21.9133 17.657L21.8361 17.619L21.7538 17.5803L21.7106 17.5606L21.6201 17.5205C21.6044 17.5137 21.5887 17.5069 21.573 17.5001L21.4746 17.4588L21.4233 17.4378L21.317 17.3952L21.2618 17.3736L21.1474 17.3296L21.0278 17.2848C20.3807 17.0596 19.7671 16.7477 19.2039 16.3575C18.8011 16.0773 18.4694 15.7068 18.2354 15.2756C18.0327 14.8695 17.9303 14.4208 17.9366 13.967C17.9354 13.4217 18.0852 12.8868 18.3693 12.4214C18.6933 11.909 19.1584 11.501 19.7089 11.2468C20.3133 10.9448 21.0688 10.7936 21.9757 10.7933C22.5068 10.7891 23.0374 10.827 23.5626 10.9067C23.9428 10.9549 24.3146 11.0555 24.6673 11.2055C24.724 11.2218 24.7698 11.2637 24.7909 11.3189C24.8049 11.3692 24.8118 11.4212 24.8115 11.4735V13.5549C24.8145 13.6041 24.7909 13.6512 24.7497 13.6785C24.7222 13.6922 24.6918 13.6993 24.661 13.6993C24.6303 13.6993 24.5999 13.6922 24.5724 13.6785V13.6785Z" fill="#31A8FF"/>
</g>
<defs>
<clipPath id="clip0_14_488">
<rect width="30.72" height="30" fill="white"/>
</clipPath>
</defs>
</svg>
