<svg width="30" height="30" viewBox="0 0 30 30" fill="none" xmlns="http://www.w3.org/2000/svg">
<path d="M6.51605 6.23403C7.35605 6.91603 7.67005 6.86403 9.24805 6.75803L24.114 5.86603C24.43 5.86603 24.168 5.55203 24.062 5.50003L21.592 3.71403C21.12 3.34603 20.49 2.92603 19.282 3.03203L4.88605 4.08203C4.36205 4.13403 4.25605 4.39603 4.46605 4.60603L6.51605 6.23403V6.23403ZM7.40805 9.69803V25.34C7.40805 26.18 7.82805 26.496 8.77405 26.444L25.114 25.498C26.058 25.446 26.164 24.868 26.164 24.186V8.64803C26.164 7.96803 25.902 7.59803 25.324 7.65003L8.24805 8.64803C7.61805 8.70003 7.40805 9.01603 7.40805 9.69803V9.69803ZM23.538 10.538C23.642 11.01 23.538 11.482 23.064 11.536L22.276 11.692V23.24C21.594 23.608 20.9621 23.82 20.4361 23.82C19.5961 23.82 19.3861 23.556 18.7561 22.768L13.606 14.684V22.506L15.236 22.874C15.236 22.874 15.236 23.818 13.922 23.818L10.298 24.028C10.192 23.818 10.298 23.294 10.666 23.188L11.61 22.928V12.584L10.3 12.48C10.194 12.008 10.456 11.326 11.192 11.272L15.08 11.012L20.4401 19.2V11.956L19.074 11.798C18.968 11.22 19.388 10.8 19.914 10.748L23.5401 10.538H23.538ZM3.67805 2.66403L18.6521 1.56203C20.4901 1.40203 20.962 1.51003 22.118 2.35003L26.8981 5.71003C27.6881 6.28603 27.9501 6.44403 27.9501 7.07403V25.498C27.9501 26.654 27.5301 27.338 26.0581 27.44L8.67005 28.49C7.56605 28.544 7.04005 28.386 6.46205 27.65L2.94205 23.084C2.31205 22.244 2.05005 21.614 2.05005 20.878V4.50003C2.05005 3.55603 2.47005 2.76803 3.67805 2.66403V2.66403Z" fill="white"/>
</svg>
