<svg width="30" height="20" viewBox="0 0 30 20" fill="none" xmlns="http://www.w3.org/2000/svg">
<g clip-path="url(#clip0_14_404)">
<path d="M15 0.976562C11 0.976562 8.49996 2.9766 7.5 6.97656C9 4.97652 10.75 4.22652 12.75 4.72656C13.8911 5.0118 14.7067 5.83973 15.6095 6.75602C17.0802 8.24887 18.7822 9.97656 22.5 9.97656C26.5 9.97656 29 7.97652 30 3.97656C28.5 5.9766 26.75 6.7266 24.75 6.22656C23.6089 5.94133 22.7933 5.1134 21.8905 4.19711C20.4198 2.70426 18.7178 0.976562 15 0.976562ZM7.5 9.97656C3.50004 9.97656 0.999961 11.9766 0 15.9766C1.5 13.9765 3.24996 13.2265 5.25 13.7266C6.39105 14.0118 7.20668 14.8397 8.10949 15.756C9.58019 17.2489 11.2822 18.9766 15 18.9766C19 18.9766 21.5 16.9765 22.5 12.9766C21 14.9766 19.25 15.7266 17.25 15.2266C16.1089 14.9413 15.2933 14.1134 14.3905 13.1971C12.9198 11.7043 11.2178 9.97656 7.5 9.97656Z" fill="url(#paint0_linear_14_404)"/>
</g>
<defs>
<linearGradient id="paint0_linear_14_404" x1="-0.8334" y1="6.73656" x2="25.0765" y2="21.6758" gradientUnits="userSpaceOnUse">
<stop stop-color="#2298BD"/>
<stop offset="1" stop-color="#0ED7B5"/>
</linearGradient>
<clipPath id="clip0_14_404">
<rect width="30" height="18.0469" fill="white" transform="translate(0 0.976562)"/>
</clipPath>
</defs>
</svg>
