<svg width="30" height="24" viewBox="0 0 30 24" fill="none" xmlns="http://www.w3.org/2000/svg">
<g clip-path="url(#clip0_14_402)">
<path d="M6.23109 0.046875C4.51934 0.046875 3.25266 1.54512 3.30937 3.16992C3.36387 4.73086 3.29309 6.75269 2.78414 8.40141C2.27367 10.0549 1.41023 11.1023 0 11.2369V12.7552C1.41023 12.8897 2.27367 13.9371 2.78414 15.5907C3.29309 17.2395 3.36387 19.2611 3.30937 20.8221C3.25266 22.4467 4.51934 23.9452 6.23133 23.9452H23.7711C25.483 23.9452 26.7493 22.4469 26.6926 20.8221C26.6382 19.2612 26.7089 17.2395 27.2179 15.5907C27.7287 13.9372 28.5898 12.8896 30 12.7552V11.2369C28.5898 11.1023 27.7287 10.0549 27.218 8.40141C26.7089 6.75293 26.6382 4.73098 26.6926 3.16992C26.7493 1.54535 25.483 0.046875 23.7711 0.046875H6.23086H6.23109V0.046875ZM20.3391 14.7578C20.3391 16.9951 18.6703 18.3519 15.9009 18.3519H11.1865C11.0516 18.3519 10.9223 18.2983 10.827 18.2029C10.7317 18.1076 10.6781 17.9783 10.6781 17.8434V6.14859C10.6781 6.08181 10.6913 6.01568 10.7168 5.95397C10.7423 5.89227 10.7798 5.8362 10.827 5.78897C10.8742 5.74174 10.9303 5.70428 10.992 5.67872C11.0537 5.65316 11.1198 5.64 11.1866 5.64H15.874C18.1832 5.64 19.6986 6.89098 19.6986 8.81144C19.6986 10.1595 18.6791 11.3662 17.3803 11.5775V11.648C19.1486 11.8419 20.3391 13.0664 20.3391 14.7578V14.7578ZM15.3867 7.25191H12.6988V11.0488H14.9629C16.7129 11.0488 17.6781 10.344 17.6781 9.08426C17.6781 7.90383 16.8482 7.25191 15.3868 7.25191H15.3867ZM12.6988 12.5554V16.7395H15.4857C17.3078 16.7395 18.2732 16.0084 18.2732 14.6343C18.2732 13.2599 17.2809 12.5551 15.3686 12.5551H12.6988V12.5554Z" fill="#7E13F8"/>
</g>
<defs>
<clipPath id="clip0_14_402">
<rect width="30" height="23.9062" fill="white" transform="translate(0 0.046875)"/>
</clipPath>
</defs>
</svg>
