<svg width="30" height="30" viewBox="0 0 30 30" fill="none" xmlns="http://www.w3.org/2000/svg">
<g clip-path="url(#clip0_14_406)">
<path d="M25.2863 19.7412C25.4128 19.6684 25.518 19.5637 25.5913 19.4374C25.6647 19.311 25.7035 19.1674 25.7038 19.0212L25.7188 14.1987C25.719 14.0525 25.7578 13.9089 25.8313 13.7824C25.9049 13.656 26.0105 13.5513 26.1375 13.4787L28.75 11.9749C28.8767 11.9025 29.0203 11.8645 29.1663 11.8649C29.3125 11.8653 29.456 11.9041 29.5825 11.9774C29.709 12.0503 29.8142 12.155 29.8875 12.2812C29.9605 12.4078 29.9988 12.5513 29.9988 12.6974V21.4649C29.9986 21.6116 29.9599 21.7556 29.8864 21.8824C29.8128 22.0092 29.7072 22.1145 29.58 22.1874L19.7138 27.8549C19.5878 27.9271 19.4452 27.965 19.3 27.965C19.1548 27.965 19.0122 27.9271 18.8863 27.8549L11.1438 23.4274C11.0162 23.3546 10.9101 23.2494 10.8363 23.1224C10.7625 22.9952 10.7237 22.8508 10.7238 22.7037V18.2824C10.7238 18.2774 10.7288 18.2749 10.7338 18.2774C10.7388 18.2799 10.7438 18.2774 10.7438 18.2712V18.2662C10.7438 18.2624 10.7463 18.2599 10.7488 18.2574L17.1263 14.5949C17.1313 14.5912 17.1288 14.5824 17.1225 14.5824C17.1215 14.5824 17.1206 14.5822 17.1197 14.5818C17.1188 14.5814 17.1181 14.5807 17.1175 14.5799C17.117 14.5792 17.1166 14.5784 17.1163 14.5776C17.1161 14.5767 17.1161 14.5758 17.1163 14.5749L17.1288 10.2412C17.1293 10.0944 17.0912 9.95006 17.0181 9.82276C16.945 9.69545 16.8396 9.5897 16.7125 9.5162C16.5858 9.44302 16.442 9.40449 16.2956 9.40449C16.1493 9.40449 16.0055 9.44302 15.8788 9.5162L11.14 12.2487C11.0136 12.3214 10.8702 12.3597 10.7244 12.3597C10.5785 12.3597 10.4352 12.3214 10.3088 12.2487L5.55375 9.5112C5.42711 9.43852 5.28361 9.40037 5.1376 9.40057C4.99159 9.40078 4.84819 9.43932 4.72175 9.51235C4.59531 9.58537 4.49027 9.69032 4.41714 9.8167C4.344 9.94307 4.30533 10.0864 4.305 10.2324V18.0662C4.30505 18.2122 4.26674 18.3557 4.19391 18.4823C4.12108 18.6089 4.01628 18.7141 3.89 18.7874C3.76391 18.8606 3.6208 18.8994 3.475 18.8999C3.32901 18.9004 3.18548 18.8624 3.05875 18.7899L0.420002 17.2812C0.292424 17.2084 0.186345 17.1032 0.112502 16.9762C0.0385139 16.8486 -0.000306254 16.7037 1.81944e-06 16.5562L0.0237518 2.86495C0.0242051 2.71912 0.0628991 2.57596 0.135972 2.44976C0.209044 2.32356 0.313939 2.21873 0.440187 2.14574C0.566434 2.07275 0.709618 2.03415 0.855446 2.03379C1.00127 2.03343 1.14465 2.07133 1.27125 2.1437L10.3088 7.33495C10.4352 7.40766 10.5785 7.44593 10.7244 7.44593C10.8702 7.44593 11.0136 7.40766 11.14 7.33495L20.175 2.1437C20.3017 2.07116 20.4453 2.03323 20.5913 2.0337C20.7375 2.03399 20.881 2.07279 21.0075 2.1462C21.1342 2.21935 21.2393 2.32454 21.3125 2.4512C21.385 2.57792 21.4229 2.72146 21.4225 2.86745V16.5624C21.4225 16.7087 21.385 16.8524 21.3113 16.9799C21.2378 17.1068 21.1321 17.212 21.005 17.2849L16.2738 20.0099C16.1465 20.0833 16.0408 20.1889 15.9675 20.3162C15.8943 20.4431 15.8559 20.5872 15.8563 20.7337C15.8564 20.8803 15.8952 21.0243 15.9688 21.1512C16.0429 21.2784 16.1494 21.3836 16.2775 21.4562L18.8875 22.9424C19.0133 23.0137 19.1554 23.0512 19.3 23.0512C19.4457 23.051 19.5888 23.0126 19.715 22.9399L25.2863 19.7399V19.7412ZM25.8338 7.4562C25.8336 7.60327 25.8724 7.74775 25.9463 7.87495C26.0207 8.00228 26.1277 8.10754 26.2563 8.17995C26.3843 8.25231 26.5293 8.2895 26.6763 8.28774C26.8234 8.28599 26.9674 8.24535 27.0938 8.16995L29.595 6.66995C29.7183 6.59598 29.8204 6.49133 29.8913 6.3662C29.9625 6.24082 29.9999 6.09913 30 5.95495V2.89995C29.9997 2.75277 29.9605 2.60829 29.8863 2.4812C29.8119 2.35409 29.7051 2.24896 29.5769 2.1765C29.4487 2.10405 29.3035 2.06685 29.1563 2.0687C29.0092 2.07035 28.8651 2.11088 28.7388 2.1862L26.2388 3.6862C26.115 3.75999 26.0125 3.86465 25.9413 3.98995C25.8705 4.11546 25.8335 4.25713 25.8338 4.4012V7.45745V7.4562Z" fill="#007FFF"/>
</g>
<defs>
<clipPath id="clip0_14_406">
<rect width="30" height="30" fill="white"/>
</clipPath>
</defs>
</svg>
