<svg width="30" height="30" viewBox="0 0 30 30" fill="none" xmlns="http://www.w3.org/2000/svg">
<path fill-rule="evenodd" clip-rule="evenodd" d="M15 1.875C17.5959 1.875 20.1335 2.64477 22.2919 4.08696C24.4503 5.52915 26.1325 7.579 27.1259 9.97728C28.1193 12.3756 28.3792 15.0146 27.8728 17.5606C27.3664 20.1066 26.1163 22.4452 24.2808 24.2808C22.4452 26.1163 20.1066 27.3664 17.5606 27.8728C15.0146 28.3792 12.3756 28.1193 9.97728 27.1259C7.579 26.1325 5.52915 24.4503 4.08696 22.2919C2.64477 20.1335 1.875 17.5959 1.875 15C1.875 11.519 3.25781 8.18064 5.71922 5.71922C8.18064 3.25781 11.519 1.875 15 1.875V1.875Z" fill="#CC6699"/>
<path d="M23.2331 7.49254C22.6387 5.16192 18.7734 4.39879 15.1153 5.69442C12.8243 6.46424 10.7077 7.67835 8.88656 9.26723C6.87187 11.1516 6.55031 12.7922 6.6825 13.4775C7.15125 15.8963 10.4634 17.4769 11.8256 18.6497V18.6563C11.4244 18.8541 8.48437 20.3438 7.79437 21.8625C7.06875 23.4675 7.90968 24.6188 8.4675 24.7735C9.30498 24.9751 10.1846 24.9095 10.9829 24.5858C11.7812 24.2622 12.4581 23.6967 12.9187 22.9688C13.2994 22.379 13.5376 21.7087 13.6144 21.011C13.6912 20.3133 13.6045 19.6072 13.3612 18.9488C14.0174 18.7821 14.6994 18.7429 15.3703 18.8335C17.6728 19.1025 18.1247 20.5397 18.0384 21.1416C17.9979 21.3558 17.9116 21.5588 17.7856 21.7368C17.6596 21.9147 17.4967 22.0635 17.3081 22.1729C17.1469 22.2732 17.0972 22.3069 17.1112 22.3819C17.1309 22.4897 17.205 22.486 17.3428 22.4625C17.6888 22.3536 17.9937 22.1423 18.2173 21.8567C18.4409 21.571 18.5727 21.2243 18.5953 20.8622C18.6506 19.456 17.2997 17.8754 14.9072 17.9157C14.2123 17.8958 13.5189 17.9909 12.855 18.1969C12.8218 18.159 12.788 18.1214 12.7537 18.0844C11.2744 16.5066 8.54062 15.39 8.65593 13.2685C8.69812 12.4969 8.96625 10.4663 13.9059 8.00254C17.9559 5.9841 21.1978 6.54004 21.7584 7.77098C22.5591 9.52973 20.0259 12.7969 15.8203 13.2685C15.3555 13.3628 14.8754 13.3513 14.4156 13.2348C13.9558 13.1183 13.5282 12.8997 13.1644 12.5954C12.9431 12.3516 12.9103 12.3413 12.8278 12.3863C12.6937 12.4604 12.7791 12.676 12.8278 12.8035C12.9888 13.0937 13.2062 13.3489 13.4672 13.554C13.7281 13.759 14.0274 13.91 14.3475 13.9979C16.001 14.3571 17.7257 14.1866 19.2769 13.5104C21.8278 12.5269 23.8172 9.78473 23.2331 7.49254V7.49254ZM12.3919 19.3716C12.5781 20.0135 12.5686 20.6964 12.3647 21.3329C12.3428 21.3991 12.3187 21.4647 12.2925 21.5297C12.2662 21.5947 12.2378 21.6572 12.2072 21.7172C12.0494 22.04 11.845 22.3379 11.6006 22.6013C10.8384 23.4329 9.7725 23.7479 9.31593 23.4825C8.82281 23.1966 9.06937 22.0238 9.95343 21.0891C10.6327 20.4174 11.4159 19.8596 12.2728 19.4372L12.3919 19.3716Z" fill="white"/>
</svg>
