<svg width="88" height="20" viewBox="0 0 88 20" fill="none" xmlns="http://www.w3.org/2000/svg">
<g clip-path="url(#clip0_14_478)">
<path d="M43.4277 4.92663C40.0284 4.92663 37.5775 7.14359 37.5775 10.4689C37.5775 13.7944 40.3363 16.0114 43.7358 16.0114C45.7895 16.0114 47.5999 15.1985 48.7209 13.8283L46.3652 12.4674C45.7433 13.1478 44.7979 13.545 43.7356 13.545C42.2608 13.545 41.0076 12.7753 40.5425 11.5437H49.1703C49.2381 11.1987 49.2781 10.8415 49.2781 10.4659C49.2781 7.14359 46.8272 4.92646 43.4277 4.92646V4.92663ZM40.5152 9.39131C40.8999 8.16271 41.9531 7.38978 43.4248 7.38978C44.8998 7.38978 45.9529 8.16271 46.3346 9.39131H40.5152ZM76.5839 4.92646C73.1846 4.92646 70.7335 7.14359 70.7335 10.4689C70.7335 13.7944 73.4923 16.0114 76.8918 16.0114C78.9455 16.0114 80.7559 15.1985 81.8769 13.8283L79.5212 12.4674C78.8993 13.1478 77.9541 13.545 76.8918 13.545C75.4168 13.545 74.1636 12.7753 73.6987 11.5437H82.3259C82.3938 11.1987 82.4337 10.8415 82.4337 10.4659C82.4337 7.14359 79.9828 4.92646 76.5835 4.92646H76.5839ZM73.6741 9.39131C74.059 8.16271 75.112 7.38978 76.5839 7.38978C78.0587 7.38978 79.1118 8.16271 79.4935 9.39131H73.6741ZM61.6562 10.4689C61.6562 12.3164 62.8634 13.5481 64.7353 13.5481C66.0039 13.5481 66.9554 12.9724 67.445 12.0332L69.8097 13.3973C68.8306 15.0292 66.9955 16.0114 64.7353 16.0114C61.333 16.0114 58.8851 13.7943 58.8851 10.4689C58.8851 7.14359 61.336 4.92663 64.7353 4.92663C66.9955 4.92663 68.8275 5.90887 69.8097 7.54076L67.445 8.90487C66.9554 7.96565 66.0039 7.38995 64.7353 7.38995C62.8664 7.38995 61.6562 8.62144 61.6562 10.4691V10.4689ZM87.0526 1.53957V15.7035H84.2814V1.53957H87.0526ZM11.3774 0L22.7546 19.7064H0L11.3774 0ZM39.8222 1.53957L31.29 16.3193L22.7576 1.53957H25.957L31.29 10.777L36.623 1.53957H39.8222V1.53957ZM57.9612 5.23455V8.21814C57.6533 8.12888 57.327 8.06733 56.9759 8.06733C55.1869 8.06733 53.8968 9.29899 53.8968 11.1465V15.7035H51.1256V5.23455H53.8968V8.06716C53.8968 6.50293 55.7166 5.23455 57.9612 5.23455V5.23455Z" fill="white"/>
</g>
<defs>
<clipPath id="clip0_14_478">
<rect width="87.0526" height="19.7229" fill="white"/>
</clipPath>
</defs>
</svg>
