<svg width="27" height="30" viewBox="0 0 27 30" fill="none" xmlns="http://www.w3.org/2000/svg">
<g clip-path="url(#clip0_14_476)">
<path d="M24.2526 0C25.7259 0 26.9232 1.18232 26.9471 2.65021L26.9474 2.69474V27.2467C26.9474 28.72 25.7647 29.9173 24.2972 29.9412L24.2526 29.9415H2.69474C1.22147 29.9415 0.0242105 28.7588 0.000315789 27.2914L0 27.2467V2.69474C0 1.22116 1.18263 0.0242105 2.65021 0.000315789L2.69474 0H24.2526ZM24.2526 1.49705H2.69474C2.04484 1.49705 1.51389 2.01789 1.49747 2.66389L1.49705 2.69474V27.2467C1.49705 27.8966 2.01789 28.4276 2.66389 28.444L2.69474 28.4444H24.2526C24.9028 28.4444 25.4335 27.9237 25.4499 27.2777L25.4503 27.2467V2.69474C25.4503 2.03453 24.9133 1.49705 24.2526 1.49705V1.49705ZM6.73684 19.4621L10.1053 22.4562L6.73684 25.4504V19.462V19.4621ZM9.73095 4.49126V12.9913C11.2258 12.5047 13.3154 11.9765 15.3451 11.9765C17.1958 11.9765 18.3036 12.7042 18.9069 13.3146C20.1816 14.6041 20.2119 16.2431 20.2102 16.4617V16.4678L20.2105 25.4503H17.2164V16.5091C17.2017 15.8102 16.8648 14.9707 15.3451 14.9707C12.3312 14.9707 8.95411 16.4715 8.85389 16.5163L8.85179 16.5173L6.73684 17.4754V4.49116H9.73095V4.49126ZM20.2105 4.49126C20.0084 6.19189 19.3189 7.82221 17.9649 9.35674H14.9707C16.1475 7.81284 16.8863 6.18821 17.2164 4.49126H20.2105Z" fill="#430098"/>
</g>
<defs>
<clipPath id="clip0_14_476">
<rect width="26.9474" height="30" fill="white"/>
</clipPath>
</defs>
</svg>
