<svg width="30" height="30" viewBox="0 0 30 30" fill="none" xmlns="http://www.w3.org/2000/svg">
<path d="M3.25002 13.2374L10.475 5.9999L12.5875 8.1249C12.2875 9.1874 12.775 10.3499 13.75 10.9124V17.8374C13 18.2624 12.5 19.0749 12.5 19.9999C12.5 20.6629 12.7634 21.2988 13.2323 21.7677C13.7011 22.2365 14.337 22.4999 15 22.4999C15.6631 22.4999 16.299 22.2365 16.7678 21.7677C17.2366 21.2988 17.5 20.6629 17.5 19.9999C17.5 19.0749 17 18.2624 16.25 17.8374V11.7624L18.8375 14.3749C18.75 14.5624 18.75 14.7749 18.75 14.9999C18.75 15.6629 19.0134 16.2988 19.4823 16.7677C19.9511 17.2365 20.587 17.4999 21.25 17.4999C21.9131 17.4999 22.549 17.2365 23.0178 16.7677C23.4866 16.2988 23.75 15.6629 23.75 14.9999C23.75 14.3369 23.4866 13.701 23.0178 13.2321C22.549 12.7633 21.9131 12.4999 21.25 12.4999C21.025 12.4999 20.8125 12.4999 20.625 12.5874L17.4125 9.3749C17.5677 8.79595 17.5076 8.18034 17.2432 7.64239C16.9788 7.10445 16.5282 6.68072 15.975 6.4499C15.4375 6.2499 14.875 6.1999 14.375 6.3374L12.25 4.2249L13.2375 3.2499C14.2125 2.2624 15.7875 2.2624 16.7625 3.2499L26.75 13.2374C27.7375 14.2124 27.7375 15.7874 26.75 16.7624L16.7625 26.7499C15.7875 27.7374 14.2125 27.7374 13.2375 26.7499L3.25002 16.7624C2.26252 15.7874 2.26252 14.2124 3.25002 13.2374Z" fill="#E44C30"/>
</svg>
