<svg width="30" height="30" viewBox="0 0 30 30" fill="none" xmlns="http://www.w3.org/2000/svg">
<path d="M20.8987 10.9848H20.8894C20.8832 10.9833 20.8777 10.9801 20.8734 10.9754C20.8656 10.9669 20.8599 10.9568 20.8566 10.9457C20.8534 10.9346 20.8527 10.923 20.8547 10.9116L21.3844 7.67632L23.8697 10.1588L21.2813 11.2501C21.2741 11.253 21.2665 11.2546 21.2588 11.2548H21.2531C21.2531 11.2548 21.2466 11.2548 21.24 11.2444C21.1429 11.1379 21.0273 11.0499 20.8987 10.9848V10.9848ZM24.5025 10.7879L27.1594 13.4419C27.7116 13.9932 27.9872 14.2688 28.0884 14.5876C28.1034 14.6343 28.1156 14.6819 28.125 14.7301L21.7763 12.0451H21.7659C21.7406 12.0348 21.7106 12.0226 21.7106 11.9963C21.7106 11.9701 21.7406 11.9579 21.7659 11.9476H21.7734L24.5025 10.7879ZM28.0163 15.5823C27.7746 15.944 27.4865 16.2724 27.1594 16.5591L24.165 19.5498L20.2912 18.7435H20.2706C20.2369 18.7379 20.1994 18.7323 20.1994 18.7004C20.1844 18.5408 20.1368 18.386 20.0596 18.2455C19.9823 18.105 19.8771 17.9819 19.7503 17.8838C19.7344 17.8679 19.7391 17.8435 19.7428 17.8201V17.8107L20.4722 13.3426V13.3276C20.4722 13.2938 20.4825 13.2535 20.5144 13.2535C20.6705 13.2341 20.8212 13.1838 20.9577 13.1056C21.0941 13.0274 21.2137 12.9228 21.3094 12.7979C21.3141 12.7903 21.3206 12.7839 21.3281 12.7791C21.3519 12.7729 21.3771 12.7763 21.3984 12.7885L28.0163 15.5823ZM23.4759 20.2379L18.5513 25.1579L19.395 19.9819V19.9557C19.4016 19.9388 19.4194 19.9323 19.4372 19.9248H19.4456C19.63 19.8462 19.7932 19.7251 19.9219 19.5713C19.9371 19.5506 19.9589 19.5357 19.9837 19.5291C19.9903 19.5282 19.9969 19.5282 20.0034 19.5291L23.4759 20.2379ZM17.5088 26.1985L16.9537 26.7535L10.8169 17.8932L10.8094 17.8838C10.7982 17.873 10.7918 17.8581 10.7916 17.8426C10.7937 17.8314 10.7989 17.821 10.8066 17.8126L10.8131 17.8041C10.8319 17.7769 10.8478 17.7498 10.8656 17.7198L10.8797 17.6963C10.8874 17.6797 10.8998 17.6657 10.9153 17.656C10.9314 17.6504 10.9489 17.6504 10.965 17.656L17.7647 19.0566C17.7838 19.0598 17.8018 19.0675 17.8172 19.0791C17.8243 19.0873 17.8289 19.0974 17.8303 19.1082V19.1213C17.8792 19.298 17.968 19.4612 18.0897 19.5984C18.2114 19.7355 18.3629 19.843 18.5325 19.9126C18.5512 19.9219 18.5428 19.9435 18.5325 19.966C18.5282 19.976 18.5248 19.9864 18.5222 19.9969C18.4406 20.5154 17.7056 24.991 17.5088 26.1985V26.1985ZM16.3491 27.3563C16.0992 27.6588 15.7833 27.9 15.4256 28.0613C15.1566 28.1466 14.8678 28.1466 14.5987 28.0613C14.2791 27.9601 14.0034 27.6863 13.4512 27.1332L7.28813 20.9766L8.89781 18.4819C8.90448 18.4695 8.91376 18.4586 8.925 18.4501C8.93481 18.4454 8.94554 18.443 8.95641 18.443C8.96727 18.443 8.978 18.4454 8.98781 18.4501C9.14601 18.4988 9.31071 18.5232 9.47625 18.5223C9.69384 18.521 9.9091 18.4774 10.11 18.3938C10.1177 18.389 10.1267 18.3864 10.1358 18.3864C10.1449 18.3864 10.1538 18.389 10.1616 18.3938C10.1686 18.4009 10.1752 18.4084 10.1812 18.4163L16.3491 27.3563ZM6.69281 20.3832L5.28 18.9704L8.07281 17.7807C8.08025 17.7794 8.08787 17.7794 8.09531 17.7807C8.11875 17.7807 8.13187 17.8041 8.145 17.8257L8.15437 17.8407C8.18062 17.881 8.20781 17.9166 8.23406 17.9513L8.2425 17.9626C8.25 17.9738 8.2425 17.9851 8.23688 17.9973L6.69281 20.3832ZM4.65469 18.346L2.86594 16.5591C2.56125 16.2554 2.34094 16.0351 2.18813 15.8448L7.62562 16.9698H7.64625C7.68 16.9754 7.7175 16.981 7.7175 17.0129C7.7175 17.0448 7.67719 17.0626 7.6425 17.0766L7.62656 17.0832L4.65469 18.346ZM1.875 14.926C1.88162 14.8108 1.9024 14.6968 1.93687 14.5866C2.03812 14.2679 2.31187 13.9923 2.86594 13.441L5.15625 11.1563C5.53125 11.7094 8.02594 15.3057 8.31656 15.7219L8.32594 15.7341C8.34469 15.7594 8.36531 15.7866 8.34469 15.8073C8.24017 15.9162 8.1492 16.0374 8.07375 16.1682C8.06603 16.1848 8.05446 16.1992 8.04 16.2104C8.03069 16.2142 8.02025 16.2142 8.01094 16.2104L1.875 14.926ZM5.7675 10.5432L8.84531 7.4682C9.135 7.59476 10.1878 8.03914 11.1291 8.43664C11.8425 8.73757 12.4922 9.01226 12.6956 9.09945C12.7058 9.10202 12.7153 9.10668 12.7235 9.11314C12.7317 9.1196 12.7385 9.12771 12.7434 9.13695C12.7477 9.15037 12.7477 9.16478 12.7434 9.1782C12.723 9.2753 12.7126 9.37427 12.7125 9.47351C12.7127 9.83096 12.8526 10.1742 13.1025 10.4298C13.1231 10.4494 13.1025 10.4794 13.0847 10.5057L13.0753 10.5198L9.95063 15.3554C9.94356 15.3687 9.93364 15.3802 9.92156 15.3891C9.91222 15.3931 9.90218 15.3951 9.89203 15.3951C9.88189 15.3951 9.87185 15.3931 9.8625 15.3891C9.74003 15.357 9.6141 15.34 9.4875 15.3385C9.36741 15.3425 9.24789 15.3569 9.13031 15.3816C9.12463 15.3844 9.11837 15.3859 9.11203 15.3859C9.10569 15.3859 9.09943 15.3844 9.09375 15.3816C9.08154 15.3719 9.07107 15.3602 9.06281 15.3469L5.7675 10.5432ZM9.46875 6.84382L13.4541 2.8632C14.0062 2.31195 14.2819 2.03632 14.6016 1.93507C14.8706 1.84977 15.1594 1.84977 15.4284 1.93507C15.7481 2.03632 16.0237 2.31007 16.5759 2.8632L17.4394 3.7257L14.6034 8.11414C14.5961 8.1267 14.5866 8.13782 14.5753 8.14695C14.5656 8.15135 14.555 8.15363 14.5444 8.15363C14.5337 8.15363 14.5232 8.15135 14.5134 8.14695C14.3736 8.10651 14.2287 8.086 14.0831 8.08601C13.7608 8.0887 13.4488 8.19965 13.1972 8.40101C13.1784 8.41882 13.1513 8.40757 13.1278 8.40101C12.7575 8.23695 9.87844 7.02101 9.46875 6.84382V6.84382ZM18.0403 4.32664L20.6578 6.94132L20.0278 10.8413V10.8516C20.0275 10.8606 20.0256 10.8695 20.0222 10.8779C20.0156 10.8919 20.0025 10.8948 19.9884 10.8976H19.9734C19.844 10.9384 19.722 11.0002 19.6125 11.0804L19.5994 11.0926C19.5961 11.0972 19.592 11.1011 19.5871 11.104C19.5823 11.1069 19.5769 11.1088 19.5712 11.1094C19.5613 11.1103 19.5513 11.1087 19.5422 11.1048L15.555 9.41257H15.5466C15.5213 9.40226 15.4913 9.39007 15.4913 9.36382C15.4686 9.14742 15.3992 8.93853 15.2878 8.75164L15.2794 8.73757C15.2597 8.7057 15.2391 8.67289 15.255 8.64382L18.0403 4.32664ZM15.3441 10.2188L19.0819 11.8004C19.1035 11.8063 19.122 11.8204 19.1334 11.8398C19.1372 11.8523 19.1372 11.8657 19.1334 11.8782C19.1213 11.9375 19.1147 11.9977 19.1138 12.0582V12.1632C19.1138 12.1885 19.0866 12.1998 19.0622 12.2101H19.0537C18.4622 12.4623 10.74 15.751 10.7288 15.751C10.7224 15.7518 10.7159 15.7512 10.7097 15.7493C10.7036 15.7473 10.6979 15.7441 10.6931 15.7398C10.6725 15.7201 10.6931 15.6901 10.7109 15.6638L10.7203 15.6498L13.7925 10.8994L13.7981 10.891C13.8159 10.8619 13.8366 10.8301 13.8694 10.8301L13.9003 10.8348C13.9641 10.8458 14.0287 10.852 14.0934 10.8535C14.3222 10.8544 14.5476 10.7988 14.7498 10.6917C14.9519 10.5846 15.1245 10.4292 15.2522 10.2394C15.2581 10.2292 15.2657 10.22 15.2747 10.2123C15.2859 10.2075 15.2981 10.2056 15.3102 10.2067C15.3223 10.2079 15.334 10.212 15.3441 10.2188V10.2188ZM11.0625 16.5104L19.4784 12.9254C19.4876 12.9262 19.496 12.9306 19.5019 12.9376C19.5403 12.9751 19.581 13.0102 19.6237 13.0426L19.6425 13.0548C19.6594 13.0651 19.6772 13.0754 19.6781 13.0932V13.1101L18.9562 17.5313V17.5491C18.9562 17.5838 18.9469 17.6232 18.9141 17.6232C18.7225 17.6365 18.5371 17.6961 18.3737 17.7971C18.2104 17.898 18.0741 18.0372 17.9766 18.2026V18.2082C17.969 18.2244 17.957 18.238 17.9419 18.2476C17.9263 18.2523 17.9097 18.2523 17.8941 18.2476L11.1825 16.8648C11.1825 16.8648 11.07 16.5113 11.0625 16.5104Z" fill="url(#paint0_linear_14_474)"/>
<defs>
<linearGradient id="paint0_linear_14_474" x1="15" y1="1.87507" x2="15" y2="28.1251" gradientUnits="userSpaceOnUse">
<stop stop-color="#21C6B7"/>
<stop offset="1" stop-color="#4C9BBF"/>
</linearGradient>
</defs>
</svg>
