<svg width="24" height="24" viewBox="0 0 24 24" fill="none" xmlns="http://www.w3.org/2000/svg">
<path d="M3.46799 2.3999H20.544C21.132 2.3999 21.6 2.8679 21.6 3.4559V20.5439C21.6 21.1199 21.132 21.5999 20.544 21.5999H15.648V14.1599H18.144L18.516 11.2679H15.648V9.4199C15.648 8.5799 15.888 8.0039 17.088 8.0039H18.624V5.4119C18.36 5.3759 17.448 5.3039 16.392 5.3039C14.172 5.3039 12.66 6.6479 12.66 9.1319V11.2679H10.152V14.1599H12.66V21.5999H3.46799C3.18681 21.5999 2.91696 21.489 2.71701 21.2913C2.51707 21.0936 2.40315 20.8251 2.39999 20.5439V3.4559C2.39999 2.8679 2.87999 2.3999 3.46799 2.3999Z" fill="#FFC700"/>
</svg>
