<svg width="24" height="24" viewBox="0 0 24 24" fill="none" xmlns="http://www.w3.org/2000/svg">
<g clip-path="url(#clip0_13_369)">
<path d="M12.312 11.9784C12.3516 11.964 12.3936 11.9532 12.4356 11.9412C12.3292 11.7052 12.2175 11.4715 12.1008 11.2404C9.84481 11.9088 7.68481 11.9148 7.29961 11.9088C7.29601 11.9388 7.29601 11.97 7.29601 12C7.29601 13.134 7.70401 14.2236 8.44561 15.0792C8.69281 14.6808 10.0032 12.726 12.312 11.9784ZM9.14761 15.7356C9.8003 16.2358 10.5729 16.5558 11.3881 16.6636C12.2033 16.7714 13.0325 16.6633 13.7928 16.35C13.5724 15.1534 13.2422 13.9796 12.8064 12.8436C10.2612 13.7436 9.30001 15.438 9.14761 15.7356V15.7356ZM15.066 8.43238C14.5114 7.95594 13.8533 7.61535 13.144 7.43767C12.4347 7.25999 11.6938 7.25009 10.98 7.40878C11.6063 8.25964 12.1759 9.15076 12.6852 10.0764C14.2248 9.48478 14.9208 8.63158 15.066 8.43238V8.43238ZM11.646 10.3968C11.1288 9.48982 10.5619 8.61209 9.94801 7.76758C9.3142 8.07641 8.75752 8.52315 8.31877 9.07505C7.88003 9.62696 7.57034 10.27 7.41241 10.9572H7.43281C7.92001 10.9572 9.65161 10.9176 11.646 10.3968ZM13.8168 12.5952C14.3748 14.1468 14.6316 15.4356 14.7048 15.8484C15.7275 15.1274 16.422 14.0297 16.6356 12.7968C16.0142 12.6203 15.3712 12.531 14.7252 12.5316C14.4156 12.5316 14.1096 12.5532 13.8168 12.5952V12.5952ZM12 0.47998C5.63761 0.47998 0.480011 5.63758 0.480011 12C0.480011 18.3624 5.63761 23.52 12 23.52C18.3624 23.52 23.52 18.3624 23.52 12C23.52 5.63758 18.3624 0.47998 12 0.47998ZM12 17.6364C10.5053 17.6351 9.07216 17.0409 8.01503 15.9843C6.95789 14.9276 6.36312 13.4947 6.36121 12C6.36248 10.5049 6.95698 9.07136 8.01418 8.01415C9.07139 6.95695 10.5049 6.36245 12 6.36118C13.4948 6.36309 14.9278 6.95782 15.9847 8.01492C17.0416 9.07203 17.636 10.5052 17.6376 12C17.636 13.4946 17.0415 14.9275 15.9846 15.9842C14.9276 17.0409 13.4946 17.6351 12 17.6364ZM13.1064 10.8888C13.2108 11.1048 13.308 11.3172 13.3968 11.526L13.482 11.73C13.8144 11.6904 14.1696 11.6712 14.5404 11.6712C15.2657 11.6726 15.9892 11.7417 16.7016 11.8776C16.6742 10.8555 16.3154 9.87 15.6792 9.06958C15.4872 9.31678 14.6976 10.2252 13.1064 10.8888V10.8888Z" fill="#FFC700"/>
</g>
<defs>
<clipPath id="clip0_13_369">
<rect width="24" height="24" fill="white"/>
</clipPath>
</defs>
</svg>
