<svg width="24" height="24" viewBox="0 0 24 24" fill="none" xmlns="http://www.w3.org/2000/svg">
<path d="M11.3081 14.2471C10.59 13.7615 9.86719 13.2829 9.14906 12.7973C9.05531 12.7326 8.98828 12.7279 8.89125 12.7973L7.06875 14.0217C8.53125 14.9953 11.4375 16.9368 11.4375 16.9368V14.4154C11.4375 14.3582 11.3648 14.2851 11.3081 14.2471ZM9.14484 11.2814C9.86953 10.8051 10.59 10.3229 11.3062 9.8348C11.3442 9.80436 11.3754 9.76641 11.398 9.72334C11.4206 9.68027 11.434 9.633 11.4375 9.58449V7.16106C11.4375 7.16106 8.53125 9.08856 7.06594 10.0645C7.70813 10.4939 8.31609 10.904 8.93063 11.3039C8.97844 11.3348 9.09 11.317 9.14484 11.2814ZM12.6487 9.81324C13.3897 10.3154 14.1339 10.8126 14.8814 11.3048C14.9093 11.3187 14.94 11.3259 14.9712 11.3259C15.0023 11.3259 15.033 11.3187 15.0609 11.3048L16.9247 10.064L12.5625 7.14746V9.64824C12.5642 9.68031 12.5728 9.71164 12.5877 9.7401C12.6026 9.76857 12.6234 9.79351 12.6487 9.81324V9.81324ZM12.0989 10.7986C12.0638 10.7824 12.0255 10.7747 11.9869 10.7761C11.9483 10.7775 11.9106 10.7879 11.8767 10.8065C11.6508 10.9471 11.4328 11.0971 11.2125 11.2448C10.8258 11.504 10.0242 12.0417 10.0242 12.0417L11.8448 13.2539C11.8889 13.2808 11.9393 13.2954 11.9909 13.2964C12.0424 13.2973 12.0933 13.2844 12.1383 13.259L13.9664 12.0403C13.9664 12.0403 12.3694 10.9781 12.0989 10.7986ZM6.60938 11.115V12.9717L7.99781 12.0417L6.60938 11.115Z" fill="#FFC700"/>
<path d="M12 1.5C6.20109 1.5 1.5 6.20109 1.5 12C1.5 17.7989 6.20109 22.5 12 22.5C17.7989 22.5 22.5 17.7989 22.5 12C22.5 6.20109 17.7989 1.5 12 1.5ZM18.5156 13.9219C18.5156 14.1928 18.3914 14.3841 18.1636 14.5355C16.2352 15.8167 14.3088 17.1009 12.3844 18.3881C12.1102 18.5719 11.8608 18.5639 11.5875 18.3816C9.67594 17.1003 7.75984 15.8242 5.83922 14.5533C5.59969 14.3944 5.48344 14.1989 5.48344 13.9097V10.1719C5.48344 9.88406 5.60156 9.68719 5.84062 9.52875C7.75828 8.25703 9.68156 6.98062 11.5936 5.7C11.8664 5.51766 12.1134 5.5125 12.3877 5.69578C14.3108 6.98359 16.2367 8.26781 18.1655 9.54844C18.3848 9.69422 18.5147 9.87422 18.5147 10.1419L18.5156 13.9219Z" fill="#FFC700"/>
<path d="M14.8242 12.8078C14.1183 13.2871 13.4091 13.7612 12.6966 14.23C12.5836 14.304 12.5611 14.3851 12.5625 14.5201V16.9267L16.9219 14.0204L15.1158 12.8073C15.008 12.7318 14.9334 12.7337 14.8242 12.8078ZM17.3437 12.9695V11.1123L15.9567 12.0437L17.3437 12.9695Z" fill="#FFC700"/>
</svg>
