<svg width="24" height="24" viewBox="0 0 24 24" fill="none" xmlns="http://www.w3.org/2000/svg">
<path d="M12.991 19.692C16.671 19.692 19.664 16.72 19.664 13.067C19.664 9.413 16.67 6.441 12.991 6.441C12.0969 6.44015 11.2116 6.61845 10.3876 6.9654C9.56348 7.31234 8.81727 7.82089 8.193 8.461V3.121H17.371C17.52 3.12127 17.663 3.06248 17.7687 2.95752C17.8744 2.85256 17.9342 2.70997 17.935 2.561C17.9349 2.48712 17.9202 2.41398 17.8917 2.34578C17.8633 2.27758 17.8217 2.21565 17.7693 2.16355C17.7169 2.11144 17.6548 2.07018 17.5864 2.04211C17.5181 2.01405 17.4449 1.99974 17.371 2H7.628C7.47902 1.99974 7.33602 2.05852 7.23031 2.16349C7.12459 2.26845 7.06479 2.41103 7.064 2.56V10.013L7.057 10.149C7.0529 10.2758 7.09153 10.4003 7.16669 10.5025C7.24184 10.6048 7.34917 10.6788 7.47143 10.7127C7.59369 10.7466 7.7238 10.7384 7.84087 10.6895C7.95794 10.6406 8.05519 10.5538 8.117 10.443C8.5962 9.56975 9.30159 8.84155 10.1592 8.33482C11.0167 7.82808 11.9949 7.56149 12.991 7.563C16.048 7.563 18.534 10.031 18.534 13.066C18.534 16.101 16.048 18.57 12.991 18.57C11.9894 18.5689 11.0067 18.2969 10.147 17.783V13.067C10.147 11.509 11.423 10.242 12.991 10.242C13.7426 10.2401 14.4641 10.5366 14.9973 11.0662C15.5306 11.5959 15.8318 12.3155 15.835 13.067C15.835 14.624 14.56 15.891 12.991 15.891C12.6152 15.8918 12.243 15.8181 11.896 15.674C11.758 15.6168 11.603 15.6164 11.4648 15.673C11.3265 15.7295 11.2163 15.8385 11.158 15.976C11.1296 16.044 11.115 16.117 11.1149 16.1906C11.1148 16.2643 11.1292 16.3373 11.1574 16.4054C11.1855 16.4735 11.2268 16.5354 11.2789 16.5875C11.331 16.6396 11.3929 16.6809 11.461 16.709C11.947 16.91 12.461 17.012 12.991 17.012C15.182 17.012 16.965 15.242 16.965 13.067C16.965 10.891 15.182 9.121 12.991 9.121C10.801 9.121 9.018 10.891 9.018 13.067V16.899C8.36807 16.2393 7.89662 15.4251 7.648 14.533C7.60848 14.3885 7.51316 14.2655 7.38301 14.1913C7.25286 14.117 7.09854 14.0975 6.954 14.137C6.80945 14.1765 6.68653 14.2718 6.61226 14.402C6.538 14.5321 6.51848 14.6865 6.558 14.831C7.353 17.693 9.998 19.692 12.991 19.692Z" fill="#FFC700"/>
<path d="M9.598 4.83297C9.53046 4.86258 9.46943 4.90525 9.41842 4.95851C9.36742 5.01177 9.32743 5.07458 9.30076 5.14334C9.2741 5.2121 9.26127 5.28545 9.26303 5.35918C9.26479 5.4329 9.28109 5.50556 9.311 5.57297C9.438 5.85597 9.771 5.98297 10.056 5.85797C11.826 5.07797 15.304 4.26197 18.703 7.57297C18.756 7.62506 18.8188 7.66618 18.8877 7.69397C18.9566 7.72177 19.0303 7.73569 19.1047 7.73495C19.179 7.73421 19.2524 7.71881 19.3208 7.68964C19.3891 7.66047 19.451 7.61811 19.503 7.56497C19.5548 7.51249 19.5957 7.45026 19.6233 7.38189C19.6509 7.31351 19.6647 7.24033 19.6639 7.16659C19.6631 7.09285 19.6476 7.02001 19.6185 6.95227C19.5893 6.88454 19.547 6.82326 19.494 6.77197C15.474 2.85697 11.234 4.11197 9.598 4.83297V4.83297ZM19.695 18.13C19.5817 18.0322 19.4343 17.9833 19.285 17.9937C19.1357 18.0042 18.9966 18.0733 18.898 18.186C18.1607 19.0267 17.2523 19.7003 16.2335 20.1614C15.2148 20.6226 14.1093 20.8608 12.991 20.86C9.011 20.86 5.669 17.903 5.218 13.982C5.20021 13.8338 5.12446 13.6988 5.00732 13.6064C4.89018 13.514 4.7412 13.4718 4.593 13.489C4.44489 13.5053 4.30933 13.5798 4.21613 13.6961C4.12294 13.8123 4.07972 13.9609 4.096 14.109C4.612 18.597 8.436 21.982 12.991 21.982C14.2707 21.983 15.5359 21.7105 16.7018 21.1828C17.8677 20.655 18.9073 19.8842 19.751 18.922C19.7996 18.8665 19.8367 18.802 19.8602 18.7321C19.8837 18.6622 19.8932 18.5883 19.888 18.5148C19.8827 18.4412 19.863 18.3694 19.8299 18.3036C19.7968 18.2377 19.7509 18.179 19.695 18.131V18.13ZM11.554 14.426C11.6592 14.5327 11.8024 14.5933 11.9523 14.5944C12.1021 14.5956 12.2463 14.5371 12.353 14.432L12.933 13.864L13.505 14.439C13.6101 14.5454 13.7532 14.6058 13.9028 14.6069C14.0524 14.6081 14.1963 14.5498 14.303 14.445C14.3558 14.3935 14.3979 14.332 14.4268 14.2642C14.4557 14.1964 14.4708 14.1235 14.4714 14.0497C14.4719 13.976 14.4579 13.9029 14.43 13.8346C14.4021 13.7663 14.361 13.7042 14.309 13.652L13.737 13.076L14.296 12.529C14.3487 12.4774 14.3907 12.4159 14.4195 12.348C14.4483 12.2802 14.4634 12.2073 14.4639 12.1335C14.4643 12.0598 14.4502 11.9867 14.4222 11.9184C14.3943 11.8502 14.3531 11.7882 14.301 11.736C14.1956 11.63 14.0527 11.5699 13.9032 11.5688C13.7538 11.5677 13.61 11.6256 13.503 11.73L12.944 12.278L12.393 11.723C12.2876 11.6167 12.1444 11.5564 11.9947 11.5553C11.8451 11.5542 11.701 11.6123 11.594 11.717C11.5413 11.7685 11.4993 11.83 11.4705 11.8979C11.4417 11.9658 11.4266 12.0387 11.4261 12.1124C11.4257 12.1862 11.4398 12.2593 11.4678 12.3275C11.4957 12.3957 11.5369 12.4578 11.589 12.51L12.139 13.065L11.56 13.633C11.5072 13.6845 11.4651 13.7459 11.4362 13.8137C11.4073 13.8816 11.3922 13.9545 11.3916 14.0282C11.3911 14.102 11.4051 14.1751 11.433 14.2433C11.4609 14.3116 11.502 14.3737 11.554 14.426V14.426Z" fill="#FFC700"/>
</svg>
