<svg width="115" height="30" viewBox="0 0 115 30" fill="none" xmlns="http://www.w3.org/2000/svg">
<g clip-path="url(#clip0_17_528)">
<path d="M9.73701 3.06891C8.58145 1.69779 7.58612 0.30535 7.38301 0.0160167C7.37818 0.0109545 7.37236 0.00692522 7.36593 0.00417229C7.35949 0.00141936 7.35257 0 7.34557 0C7.33857 0 7.33164 0.00141936 7.3252 0.00417229C7.31877 0.00692522 7.31296 0.0109545 7.30812 0.0160167C7.10479 0.30535 6.10968 1.69779 4.95412 3.06891C-4.96477 15.7191 6.51634 24.256 6.51634 24.256L6.61257 24.3205C6.69812 25.6378 6.91212 27.5338 6.91212 27.5338H7.76812C7.76812 27.5338 7.98212 25.6485 8.06768 24.3205L8.16412 24.2453C8.17479 24.256 19.6557 15.7191 9.73701 3.06891V3.06891ZM7.34012 24.0634C7.34012 24.0634 6.82657 23.624 6.68745 23.3993V23.3778L7.30812 9.60291C7.30812 9.56002 7.37234 9.56002 7.37234 9.60291L7.99279 23.3778V23.3993C7.85368 23.624 7.34012 24.0634 7.34012 24.0634Z" fill="#449A45"/>
<path d="M28.8261 21.2525L24.0417 9.56736L24.0312 9.53513H20.309V10.3205H20.9094C21.0919 10.3205 21.2634 10.396 21.3923 10.5249C21.521 10.654 21.5854 10.8262 21.5854 11.0094L21.4781 22.7694C21.4781 23.1354 21.1779 23.4365 20.813 23.4474L20.2017 23.458V24.2327H23.8274V23.458L23.4519 23.4474C23.0872 23.4365 22.7868 23.1354 22.7868 22.7696V11.6867L28.0001 24.2325C28.0752 24.4154 28.2468 24.5338 28.4401 24.5338C28.633 24.5338 28.8045 24.4154 28.8797 24.2325L33.9752 11.9665L34.0503 22.7694C34.0503 23.1458 33.7499 23.4471 33.3743 23.4578H32.9881V24.2325H37.2361V23.4578H36.6568C36.2923 23.4578 35.9917 23.1458 35.9812 22.78L35.9488 11.0196C35.9486 10.8409 36.0179 10.6693 36.142 10.5408C36.2661 10.4123 36.4354 10.3371 36.6139 10.3311L37.2361 10.3202V9.53491H33.6103L28.8259 21.2522L28.8261 21.2525ZM62.1846 23.2534C62.0663 23.1349 62.0017 22.9734 62.0017 22.7791V17.0022C62.0017 15.9029 61.6792 15.0405 61.0339 14.4262C60.3992 13.8118 59.5174 13.4994 58.4206 13.4994C56.8823 13.4994 55.6672 14.1245 54.8174 15.3531C54.8068 15.3747 54.7745 15.3856 54.7423 15.3856C54.7099 15.3856 54.6885 15.3638 54.6885 15.3316L54.2905 13.7902H53.6237L51.9137 14.7711V15.31H52.3546C52.559 15.31 52.731 15.3638 52.8494 15.4718C52.9677 15.5796 53.0321 15.7411 53.0321 15.9674V22.7685C53.0321 22.9625 52.9677 23.1242 52.8494 23.2429C52.731 23.3614 52.5697 23.426 52.3761 23.426H51.9459V24.2127H55.8821V23.426H55.4521C55.2583 23.426 55.097 23.3614 54.9788 23.2429C54.8605 23.1242 54.7959 22.9625 54.7959 22.7685V18.2631C54.7959 17.692 54.925 17.1207 55.1617 16.56C55.409 16.0105 55.7745 15.5469 56.2585 15.1911C56.7425 14.8356 57.3234 14.6631 57.9901 14.6631C58.743 14.6631 59.313 14.9002 59.6679 15.3745C60.0228 15.8487 60.2057 16.4631 60.2057 17.196V22.7576C60.2057 22.9516 60.1412 23.1131 60.0228 23.2318C59.9046 23.3505 59.7432 23.4149 59.5494 23.4149H59.1194V24.2018H63.0557V23.4151H62.6257C62.4643 23.4367 62.3137 23.372 62.1846 23.2534V23.2534ZM98.1474 10.4149C97.0594 9.83558 95.8434 9.53491 94.5312 9.53491H89.4112V10.3182H89.9123C90.1043 10.3182 90.275 10.3934 90.4457 10.5649C90.6057 10.726 90.691 10.9085 90.691 11.1016V22.646C90.691 22.8394 90.6059 23.0216 90.4457 23.1827C90.2857 23.3436 90.1043 23.4294 89.9123 23.4294H89.411V24.2127H94.5312C95.8434 24.2127 97.0594 23.9122 98.1474 23.3327C99.2354 22.7534 100.121 21.8949 100.761 20.8007C101.401 19.7065 101.732 18.3867 101.732 16.8845C101.732 15.3825 101.401 14.0734 100.761 12.9685C100.11 11.8527 99.2354 11.0049 98.1477 10.4149H98.1474ZM99.673 16.8631C99.673 18.2365 99.4277 19.3951 98.9474 20.3287C98.4674 21.262 97.8274 21.9594 97.0381 22.4102C96.2488 22.8607 95.3739 23.086 94.4352 23.086H93.4005C93.2085 23.086 93.0379 23.0109 92.8672 22.8394C92.7072 22.6782 92.6219 22.496 92.6219 22.3029V11.4127C92.6219 11.2194 92.6965 11.048 92.8672 10.8762C93.0272 10.7154 93.2085 10.6296 93.4005 10.6296H94.4352C95.3739 10.6296 96.2486 10.8547 97.0381 11.3054C97.8274 11.756 98.4674 12.4534 98.9474 13.3869C99.4274 14.3309 99.673 15.5005 99.673 16.8631ZM113.835 17.6465C113.361 17.0991 112.447 16.6378 111.373 16.3909C112.857 15.6507 113.619 14.61 113.619 13.2687C113.619 12.5394 113.427 11.8847 113.039 11.3269C112.652 10.7691 112.103 10.3182 111.405 10.0071C110.705 9.69602 109.888 9.53513 108.963 9.53513H103.167V10.3182H103.63C103.823 10.3182 103.995 10.3934 104.167 10.5649C104.329 10.726 104.415 10.9085 104.415 11.1016V22.646C104.415 22.8394 104.329 23.0216 104.167 23.1827C104.006 23.3436 103.823 23.4294 103.63 23.4294H103.124V24.2127H109.415C110.372 24.2127 111.264 24.0518 112.071 23.7298C112.878 23.408 113.523 22.9358 113.986 22.3136C114.458 21.6914 114.695 20.9294 114.695 20.0496C114.684 19.1056 114.405 18.3007 113.835 17.6465V17.6465ZM106.619 22.85C106.458 22.6891 106.372 22.5067 106.372 22.3136V17.1311H109.362C110.415 17.1311 111.221 17.3994 111.781 17.9356C112.34 18.4722 112.62 19.1696 112.62 20.028C112.62 20.5429 112.49 21.0474 112.254 21.5087C112.007 21.9807 111.64 22.3562 111.147 22.646C110.662 22.9356 110.06 23.086 109.362 23.086H107.157C106.963 23.086 106.791 23.0107 106.619 22.8498L106.619 22.85ZM106.383 16.0262V11.4234C106.383 11.2302 106.458 11.0587 106.63 10.8869C106.791 10.726 106.974 10.6402 107.168 10.6402H108.587C109.608 10.6402 110.361 10.8978 110.835 11.3914C111.307 11.8956 111.544 12.5394 111.544 13.3331C111.544 14.1487 111.318 14.8031 110.878 15.2967C110.436 15.7794 109.77 16.0262 108.888 16.0262H106.383V16.0262ZM47.1994 14.1834C46.3777 13.7345 45.4599 13.4989 44.4674 13.4989C43.5012 13.4989 42.5957 13.712 41.7999 14.1478L41.7357 14.1834C40.9139 14.6325 40.263 15.2847 39.7828 16.108C39.3028 16.9314 39.0572 17.8938 39.0572 18.9629C39.0572 20.0322 39.3026 20.9947 39.7828 21.818C40.263 22.6414 40.9139 23.2936 41.7357 23.7425C42.5574 24.1916 43.4752 24.4269 44.4674 24.4269C45.4339 24.4269 46.3394 24.214 47.135 23.7785L47.1994 23.7427C48.021 23.2936 48.6721 22.6414 49.1523 21.818C49.6323 20.9947 49.8779 20.0322 49.8779 18.9629C49.8779 17.8938 49.6323 16.9314 49.1523 16.108C48.6721 15.2847 48.0212 14.6325 47.1994 14.1836V14.1834ZM47.989 18.9629C47.989 20.2782 47.669 21.3474 47.0286 22.1174C46.399 22.8871 45.5348 23.2827 44.4674 23.2827C43.4194 23.2827 42.567 22.9011 41.9403 22.1582L41.9065 22.1174C41.2661 21.3474 40.9459 20.2782 40.9459 18.9629C40.9459 17.6718 41.2548 16.6176 41.8719 15.8509L41.9065 15.8087C42.5359 15.0389 43.4005 14.6431 44.4674 14.6431C45.5348 14.6431 46.399 15.0387 47.0286 15.8087C47.669 16.5787 47.989 17.6478 47.989 18.9629ZM85.0181 14.1834C84.1963 13.7345 83.2788 13.4989 82.2863 13.4989C81.3201 13.4989 80.4143 13.712 79.6188 14.1478L79.5543 14.1834C78.7328 14.6325 78.0819 15.2847 77.6017 16.108C77.1214 16.9314 76.8759 17.8938 76.8759 18.9629C76.8759 20.0322 77.1214 20.9947 77.6017 21.818C78.0817 22.6414 78.7328 23.2936 79.5546 23.7425C80.3761 24.1916 81.2939 24.4269 82.2863 24.4269C83.2526 24.4269 84.1583 24.214 84.9539 23.7785L85.0183 23.7427C85.8399 23.2936 86.4908 22.6414 86.971 21.818C87.4512 20.9947 87.6965 20.0322 87.6965 18.9629C87.6965 17.8938 87.4512 16.9314 86.971 16.108C86.491 15.2847 85.8292 14.6325 85.0181 14.1836V14.1834ZM85.8079 18.9629C85.8079 20.2782 85.4877 21.3474 84.8474 22.1174C84.2177 22.8871 83.3534 23.2827 82.2863 23.2827C81.2381 23.2827 80.3857 22.9011 79.7592 22.1582L79.7252 22.1174C79.085 21.3474 78.7648 20.2782 78.7648 18.9629C78.7648 17.6611 79.0734 16.6171 79.6906 15.8509L79.7252 15.8087C80.3548 15.0389 81.2192 14.6431 82.2863 14.6431C83.3534 14.6431 84.2177 15.0387 84.8474 15.8087C85.477 16.5787 85.8079 17.6478 85.8079 18.9629V18.9629ZM69.7665 13.4991C68.9065 13.4991 68.1221 13.6816 67.4128 14.0469C66.7034 14.412 66.1446 14.9062 65.747 15.54C65.3515 16.155 65.1425 16.8713 65.1452 17.6025C65.1452 18.2685 65.2957 18.8807 65.6074 19.4287C65.9081 19.9549 66.3165 20.3954 66.8325 20.7605L65.2957 22.8445C65.1023 23.1022 65.0808 23.446 65.2203 23.7254C65.3708 24.0154 65.6503 24.1871 65.9728 24.1871H66.4134C66.0014 24.4651 65.6683 24.7925 65.4332 25.1782L65.403 25.2291C65.1237 25.6909 64.9839 26.1745 64.9839 26.6685C64.9839 27.5758 65.3779 28.3278 66.1554 28.8936L66.1983 28.9242C66.9939 29.4936 68.1114 29.7836 69.5192 29.7836C70.4972 29.7836 71.4323 29.6225 72.2814 29.3109C73.1166 29.0085 73.7994 28.5638 74.3108 27.9874L74.3552 27.9362C74.8819 27.3345 75.1508 26.604 75.1508 25.7662C75.1508 24.8854 74.8283 24.2622 74.0761 23.6609C73.4312 23.156 72.421 22.8876 71.1634 22.8876H66.8648C66.8585 22.887 66.8525 22.8845 66.8477 22.8805L66.8432 22.8767L66.8412 22.8722C66.839 22.8654 66.8354 22.8522 66.8432 22.8445L67.961 21.3407C68.2257 21.464 68.5032 21.5576 68.7885 21.6198C69.0463 21.6736 69.3366 21.6951 69.659 21.6951C70.5617 21.6951 71.3786 21.5125 72.0879 21.1474C72.7972 20.782 73.3668 20.288 73.7752 19.654C74.1834 19.0311 74.3877 18.3329 74.3877 17.5918C74.3877 16.7969 74.001 15.3467 72.9477 14.6056C72.9477 14.5989 72.9514 14.5965 72.9545 14.5954L72.9583 14.5947L75.269 14.8525V13.7891H71.5719C70.9917 13.6065 70.3897 13.4991 69.7665 13.4991V13.4991ZM71.0561 20.2236C70.6477 20.4382 70.2072 20.5565 69.7665 20.5565C69.0465 20.5565 68.4123 20.2987 67.875 19.7938C67.3377 19.2889 67.069 18.5478 67.069 17.6025C67.069 16.6571 67.3377 15.9158 67.875 15.4111C68.4123 14.9062 69.0463 14.6485 69.7665 14.6485C70.199 14.6485 70.6119 14.7471 71.005 14.9538L71.0561 14.9814C71.4645 15.1962 71.7977 15.5294 72.0663 15.9698C72.3241 16.4102 72.4641 16.958 72.4641 17.6025C72.4641 18.2578 72.335 18.8056 72.0663 19.2351C71.8085 19.6756 71.4645 20.0085 71.0561 20.2234V20.2236ZM68.1437 24.1765H71.0561C71.8621 24.1765 72.3781 24.3376 72.7219 24.6814C73.0659 25.0251 73.2377 25.4869 73.2377 26.024C73.2377 26.8082 72.9261 27.4529 72.3028 27.936C71.6794 28.4196 70.8412 28.6665 69.8094 28.6665C68.9066 28.6665 68.1543 28.4625 67.6061 28.0758C67.0581 27.6891 66.7788 27.098 66.7788 26.3462C66.7788 25.8736 66.9077 25.4331 67.1657 25.0465C67.4234 24.6598 67.7352 24.3805 68.1434 24.1765H68.1437Z" fill="white"/>
</g>
<defs>
<clipPath id="clip0_17_528">
<rect width="113.778" height="30" fill="white" transform="translate(0.917236)"/>
</clipPath>
</defs>
</svg>
