<svg width="50" height="30" viewBox="0 0 50 30" fill="none" xmlns="http://www.w3.org/2000/svg">
<g clip-path="url(#clip0_14_442)">
<path d="M24.8668 29.9135C24.7012 29.9135 24.5466 29.8693 24.403 29.7921L22.9344 28.9198C22.7135 28.7982 22.824 28.7541 22.8903 28.732C23.1884 28.6327 23.2436 28.6105 23.5528 28.4339C23.5859 28.4118 23.6302 28.4228 23.6632 28.4449L24.7896 29.1185C24.8337 29.1406 24.8889 29.1406 24.922 29.1185L29.3279 26.5677C29.372 26.5457 29.3942 26.5014 29.3942 26.4463V21.3558C29.3942 21.3005 29.372 21.2565 29.3279 21.2343L24.922 18.6946C24.8778 18.6725 24.8226 18.6725 24.7896 18.6946L20.3837 21.2343C20.3395 21.2564 20.3174 21.3116 20.3174 21.3557V26.4462C20.3174 26.4904 20.3395 26.5456 20.3837 26.5677L21.5873 27.2634C22.2388 27.5946 22.6473 27.2081 22.6473 26.8217V21.7974C22.6473 21.7312 22.7026 21.6649 22.7798 21.6649H23.343C23.4093 21.6649 23.4755 21.7201 23.4755 21.7974V26.8217C23.4755 27.694 23.0006 28.202 22.1725 28.202C21.9185 28.202 21.7198 28.202 21.1566 27.9258L19.9972 27.2634C19.7101 27.0978 19.5334 26.7885 19.5334 26.4573V21.3668C19.5334 21.0356 19.7101 20.7263 19.9972 20.5607L24.403 18.01C24.6791 17.8554 25.0546 17.8554 25.3306 18.01L29.7364 20.5607C30.0235 20.7263 30.2003 21.0356 30.2003 21.3668V26.4573C30.2003 26.7885 30.0235 27.0978 29.7364 27.2634L25.3306 29.8141C25.187 29.8804 25.0214 29.9135 24.8669 29.9135H24.8668ZM26.225 26.4131C24.2927 26.4131 23.8951 25.5298 23.8951 24.7789C23.8951 24.7126 23.9503 24.6464 24.0276 24.6464H24.6018C24.668 24.6464 24.7233 24.6905 24.7233 24.7568C24.8116 25.342 25.0656 25.6291 26.2361 25.6291C27.1636 25.6291 27.5612 25.4193 27.5612 24.9224C27.5612 24.6353 27.4507 24.4256 26.0042 24.282C24.8006 24.1605 24.0497 23.8955 24.0497 22.9349C24.0497 22.0404 24.8006 21.5103 26.0594 21.5103C27.4727 21.5103 28.1685 21.9963 28.2569 23.0562C28.2569 23.0894 28.2458 23.1225 28.2237 23.1557C28.2015 23.1777 28.1685 23.1998 28.1353 23.1998H27.5611C27.5059 23.1998 27.4507 23.1557 27.4397 23.1004C27.3072 22.4932 26.9648 22.2943 26.0594 22.2943C25.0435 22.2943 24.922 22.6478 24.922 22.9127C24.922 23.2329 25.0656 23.3323 26.4348 23.509C27.793 23.6857 28.4335 23.9397 28.4335 24.8892C28.4224 25.861 27.6274 26.4131 26.225 26.4131Z" fill="#539E43"/>
<path d="M11.1965 10.0044C11.1965 9.80563 11.086 9.61779 10.9094 9.51843L6.22745 6.82416C6.15006 6.77993 6.06178 6.75786 5.9735 6.74678H5.92926C5.84098 6.74678 5.7526 6.77993 5.67531 6.82416L0.993401 9.51843C0.816649 9.61779 0.706299 9.80553 0.706299 10.0044L0.717382 17.248C0.717382 17.3474 0.772605 17.4467 0.860885 17.491C0.949261 17.5462 1.05961 17.5462 1.137 17.491L3.91964 15.9009C4.0963 15.8015 4.20674 15.6138 4.20674 15.4151V12.0251C4.20674 11.8263 4.3171 11.6386 4.49385 11.5392L5.67531 10.8546C5.76369 10.7994 5.86305 10.7772 5.96241 10.7772C6.06178 10.7772 6.16114 10.7994 6.23853 10.8546L7.41999 11.5392C7.59674 11.6386 7.70709 11.8262 7.70709 12.0251V15.4151C7.70709 15.6138 7.81754 15.8015 7.9942 15.9009L10.7768 17.491C10.8198 17.518 10.8696 17.5324 10.9204 17.5324C10.9712 17.5324 11.021 17.518 11.0639 17.491C11.1523 17.4467 11.2075 17.3474 11.2075 17.248L11.1965 10.0044ZM33.7006 0.0331768C33.6123 -0.0110589 33.5018 -0.0110589 33.4245 0.0331768C33.3362 0.0883997 33.2809 0.17668 33.2809 0.276043V7.45359C33.2809 7.5198 33.2479 7.58601 33.1816 7.63025C33.1154 7.6633 33.0491 7.6633 32.9829 7.63025L31.8124 6.95668C31.7266 6.90782 31.6295 6.88213 31.5308 6.88213C31.432 6.88213 31.335 6.90782 31.2492 6.95668L26.5673 9.66203C26.3906 9.76139 26.2802 9.94913 26.2802 10.1479V15.5475C26.2802 15.7462 26.3906 15.934 26.5673 16.0334L31.2492 18.7388C31.335 18.7876 31.432 18.8133 31.5308 18.8133C31.6295 18.8133 31.7266 18.7876 31.8124 18.7388L36.4943 16.0334C36.671 15.934 36.7814 15.7463 36.7814 15.5475V2.08703C36.7814 1.87722 36.671 1.68958 36.4943 1.59012L33.7007 0.0331768H33.7006ZM33.27 13.7697C33.27 13.825 33.2479 13.8691 33.2037 13.8912L31.6026 14.8187C31.5802 14.8296 31.5557 14.8353 31.5308 14.8353C31.5059 14.8353 31.4813 14.8296 31.459 14.8187L29.8579 13.8912C29.8137 13.8691 29.7916 13.8139 29.7916 13.7697V11.9146C29.7916 11.8594 29.8137 11.8152 29.8579 11.7932L31.459 10.8656C31.4813 10.8547 31.5059 10.849 31.5308 10.849C31.5557 10.849 31.5802 10.8547 31.6026 10.8656L33.2037 11.7932C33.2479 11.8152 33.27 11.8705 33.27 11.9146V13.7697ZM49.2812 11.8705C49.4579 11.7711 49.5573 11.5834 49.5573 11.3845V10.0706C49.5573 9.87184 49.4468 9.6841 49.2812 9.58474L44.6324 6.89047C44.5466 6.84161 44.4496 6.81592 44.3508 6.81592C44.2521 6.81592 44.155 6.84161 44.0692 6.89047L39.3873 9.59572C39.2105 9.69509 39.1002 9.88283 39.1002 10.0816V15.4813C39.1002 15.68 39.2106 15.8677 39.3873 15.9671L44.036 18.6172C44.2128 18.7166 44.4226 18.7166 44.5883 18.6172L47.404 17.0494C47.4924 17.0052 47.5476 16.9058 47.5476 16.8064C47.5476 16.7071 47.4924 16.6077 47.404 16.5635L42.7 13.8581C42.6116 13.8029 42.5564 13.7146 42.5564 13.6152V11.9258C42.5564 11.8264 42.6116 11.7271 42.7 11.6828L44.1686 10.8436C44.2116 10.8165 44.2613 10.8022 44.3121 10.8022C44.3629 10.8022 44.4127 10.8165 44.4557 10.8436L45.9243 11.6828C46.0127 11.738 46.0678 11.8263 46.0678 11.9258V13.2509C46.0678 13.3502 46.1231 13.4496 46.2114 13.4937C46.2544 13.5208 46.3042 13.5351 46.355 13.5351C46.4058 13.5351 46.4555 13.5208 46.4985 13.4937L49.2812 11.8705V11.8705Z" fill="#333333"/>
<path d="M44.2791 11.6164C44.2954 11.6056 44.3146 11.5999 44.3343 11.5999C44.3539 11.5999 44.3731 11.6056 44.3895 11.6164L45.284 12.1354C45.317 12.1576 45.3391 12.1906 45.3391 12.2348V13.2728C45.3391 13.317 45.3171 13.3501 45.284 13.3722L44.3895 13.8912C44.3731 13.902 44.3539 13.9077 44.3343 13.9077C44.3146 13.9077 44.2954 13.902 44.2791 13.8912L43.3847 13.3722C43.3515 13.3501 43.3295 13.317 43.3295 13.2728V12.2349C43.3295 12.1906 43.3514 12.1575 43.3847 12.1355L44.2791 11.6164V11.6164Z" fill="#539E43"/>
<path d="M19.0253 6.91266C18.9395 6.86382 18.8425 6.83813 18.7438 6.83813C18.6451 6.83813 18.548 6.86382 18.4622 6.91266L13.8135 9.59575C13.6367 9.69511 13.5374 9.88285 13.5374 10.0816V15.4592C13.5374 15.6579 13.6478 15.8457 13.8135 15.945L18.4622 18.6283C18.548 18.6772 18.6451 18.7029 18.7438 18.7029C18.8425 18.7029 18.9395 18.6772 19.0253 18.6283L23.6742 15.945C23.8509 15.8457 23.9503 15.6579 23.9503 15.4592V10.0817C23.9503 9.88295 23.8398 9.69521 23.6742 9.59584L19.0253 6.91266Z" fill="url(#paint0_linear_14_442)"/>
</g>
<defs>
<linearGradient id="paint0_linear_14_442" x1="20.6377" y1="8.91292" x2="15.5423" y2="16.9194" gradientUnits="userSpaceOnUse">
<stop stop-color="#41873F"/>
<stop offset="0.3288" stop-color="#418B3D"/>
<stop offset="0.6352" stop-color="#419637"/>
<stop offset="0.9319" stop-color="#3FA92D"/>
<stop offset="1" stop-color="#3FAE2A"/>
</linearGradient>
<clipPath id="clip0_14_442">
<rect width="48.9172" height="30" fill="white" transform="translate(0.684204)"/>
</clipPath>
</defs>
</svg>
