<svg width="115" height="30" viewBox="0 0 115 30" fill="none" xmlns="http://www.w3.org/2000/svg">
<g clip-path="url(#clip0_14_465)">
<path d="M9.42121 3.06891C8.26566 1.69779 7.27033 0.30535 7.06721 0.0160167C7.06238 0.0109545 7.05657 0.00692522 7.05013 0.00417229C7.0437 0.00141936 7.03677 0 7.02977 0C7.02277 0 7.01584 0.00141936 7.00941 0.00417229C7.00297 0.00692522 6.99716 0.0109545 6.99233 0.0160167C6.78899 0.30535 5.79388 1.69779 4.63833 3.06891C-5.28056 15.7191 6.20055 24.256 6.20055 24.256L6.29677 24.3205C6.38233 25.6378 6.59632 27.5338 6.59632 27.5338H7.45233C7.45233 27.5338 7.66632 25.6485 7.75188 24.3205L7.84833 24.2453C7.85899 24.256 19.3399 15.7191 9.42121 3.06891V3.06891ZM7.02433 24.0634C7.02433 24.0634 6.51077 23.624 6.37166 23.3993V23.3778L6.99233 9.60291C6.99233 9.56002 7.05655 9.56002 7.05655 9.60291L7.67699 23.3778V23.3993C7.53788 23.624 7.02433 24.0634 7.02433 24.0634Z" fill="#449A45"/>
<path d="M28.5103 21.2525L23.7259 9.56736L23.7154 9.53513H19.9932V10.3205H20.5936C20.7761 10.3205 20.9476 10.396 21.0765 10.5249C21.2052 10.654 21.2696 10.8262 21.2696 11.0094L21.1623 22.7694C21.1623 23.1354 20.8621 23.4365 20.4972 23.4474L19.8859 23.458V24.2327H23.5116V23.458L23.1361 23.4474C22.7714 23.4365 22.471 23.1354 22.471 22.7696V11.6867L27.6843 24.2325C27.7594 24.4154 27.931 24.5338 28.1243 24.5338C28.3172 24.5338 28.4888 24.4154 28.5639 24.2325L33.6594 11.9665L33.7345 22.7694C33.7345 23.1458 33.4341 23.4471 33.0585 23.4578H32.6723V24.2325H36.9203V23.4578H36.341C35.9765 23.4578 35.6759 23.1458 35.6654 22.78L35.633 11.0196C35.6328 10.8409 35.7021 10.6693 35.8262 10.5408C35.9504 10.4123 36.1196 10.3371 36.2981 10.3311L36.9203 10.3202V9.53491H33.2945L28.5101 21.2522L28.5103 21.2525ZM61.8688 23.2534C61.7505 23.1349 61.6859 22.9734 61.6859 22.7791V17.0022C61.6859 15.9029 61.3634 15.0405 60.7181 14.4262C60.0834 13.8118 59.2016 13.4994 58.1048 13.4994C56.5665 13.4994 55.3514 14.1245 54.5016 15.3531C54.491 15.3747 54.4588 15.3856 54.4265 15.3856C54.3941 15.3856 54.3728 15.3638 54.3728 15.3316L53.9748 13.7902H53.3079L51.5979 14.7711V15.31H52.0388C52.2432 15.31 52.4152 15.3638 52.5336 15.4718C52.6519 15.5796 52.7163 15.7411 52.7163 15.9674V22.7685C52.7163 22.9625 52.6519 23.1242 52.5336 23.2429C52.4152 23.3614 52.2539 23.426 52.0603 23.426H51.6301V24.2127H55.5663V23.426H55.1363C54.9425 23.426 54.7812 23.3614 54.663 23.2429C54.5448 23.1242 54.4801 22.9625 54.4801 22.7685V18.2631C54.4801 17.692 54.6092 17.1207 54.8459 16.56C55.0932 16.0105 55.4588 15.5469 55.9428 15.1911C56.4268 14.8356 57.0076 14.6631 57.6743 14.6631C58.4272 14.6631 58.9972 14.9002 59.3521 15.3745C59.707 15.8487 59.8899 16.4631 59.8899 17.196V22.7576C59.8899 22.9516 59.8254 23.1131 59.707 23.2318C59.5888 23.3505 59.4274 23.4149 59.2336 23.4149H58.8036V24.2018H62.7399V23.4151H62.3099C62.1485 23.4367 61.9979 23.372 61.8688 23.2534V23.2534ZM97.8316 10.4149C96.7436 9.83558 95.5276 9.53491 94.2154 9.53491H89.0954V10.3182H89.5965C89.7885 10.3182 89.9592 10.3934 90.1299 10.5649C90.2899 10.726 90.3752 10.9085 90.3752 11.1016V22.646C90.3752 22.8394 90.2901 23.0216 90.1299 23.1827C89.9699 23.3436 89.7885 23.4294 89.5965 23.4294H89.0952V24.2127H94.2154C95.5276 24.2127 96.7436 23.9122 97.8316 23.3327C98.9196 22.7534 99.805 21.8949 100.445 20.8007C101.085 19.7065 101.416 18.3867 101.416 16.8845C101.416 15.3825 101.085 14.0734 100.445 12.9685C99.7945 11.8527 98.9196 11.0049 97.8319 10.4149H97.8316ZM99.3572 16.8631C99.3572 18.2365 99.1119 19.3951 98.6316 20.3287C98.1516 21.262 97.5116 21.9594 96.7223 22.4102C95.933 22.8607 95.0581 23.086 94.1194 23.086H93.0848C92.8928 23.086 92.7221 23.0109 92.5514 22.8394C92.3914 22.6782 92.3061 22.496 92.3061 22.3029V11.4127C92.3061 11.2194 92.3808 11.048 92.5514 10.8762C92.7114 10.7154 92.8928 10.6296 93.0848 10.6296H94.1194C95.0581 10.6296 95.9328 10.8547 96.7223 11.3054C97.5116 11.756 98.1516 12.4534 98.6316 13.3869C99.1116 14.3309 99.3572 15.5005 99.3572 16.8631ZM113.519 17.6465C113.045 17.0991 112.131 16.6378 111.057 16.3909C112.541 15.6507 113.303 14.61 113.303 13.2687C113.303 12.5394 113.111 11.8847 112.723 11.3269C112.336 10.7691 111.787 10.3182 111.089 10.0071C110.389 9.69602 109.572 9.53513 108.647 9.53513H102.852V10.3182H103.314C103.507 10.3182 103.68 10.3934 103.852 10.5649C104.013 10.726 104.099 10.9085 104.099 11.1016V22.646C104.099 22.8394 104.013 23.0216 103.852 23.1827C103.69 23.3436 103.507 23.4294 103.314 23.4294H102.809V24.2127H109.1C110.056 24.2127 110.949 24.0518 111.755 23.7298C112.562 23.408 113.207 22.9358 113.67 22.3136C114.143 21.6914 114.379 20.9294 114.379 20.0496C114.369 19.1056 114.089 18.3007 113.519 17.6465V17.6465ZM106.303 22.85C106.142 22.6891 106.056 22.5067 106.056 22.3136V17.1311H109.046C110.099 17.1311 110.906 17.3994 111.465 17.9356C112.024 18.4722 112.304 19.1696 112.304 20.028C112.304 20.5429 112.174 21.0474 111.939 21.5087C111.691 21.9807 111.325 22.3562 110.831 22.646C110.346 22.9356 109.744 23.086 109.046 23.086H106.841C106.647 23.086 106.475 23.0107 106.303 22.8498L106.303 22.85ZM106.067 16.0262V11.4234C106.067 11.2302 106.142 11.0587 106.314 10.8869C106.475 10.726 106.658 10.6402 106.852 10.6402H108.271C109.292 10.6402 110.046 10.8978 110.519 11.3914C110.992 11.8956 111.228 12.5394 111.228 13.3331C111.228 14.1487 111.002 14.8031 110.562 15.2967C110.121 15.7794 109.454 16.0262 108.573 16.0262H106.067V16.0262ZM46.8836 14.1834C46.0619 13.7345 45.1441 13.4989 44.1516 13.4989C43.1854 13.4989 42.2799 13.712 41.4841 14.1478L41.4199 14.1834C40.5981 14.6325 39.9472 15.2847 39.467 16.108C38.987 16.9314 38.7414 17.8938 38.7414 18.9629C38.7414 20.0322 38.9868 20.9947 39.467 21.818C39.9472 22.6414 40.5981 23.2936 41.4199 23.7425C42.2416 24.1916 43.1594 24.4269 44.1516 24.4269C45.1181 24.4269 46.0236 24.214 46.8192 23.7785L46.8836 23.7427C47.7052 23.2936 48.3563 22.6414 48.8365 21.818C49.3165 20.9947 49.5621 20.0322 49.5621 18.9629C49.5621 17.8938 49.3165 16.9314 48.8365 16.108C48.3563 15.2847 47.7054 14.6325 46.8836 14.1836V14.1834ZM47.6732 18.9629C47.6732 20.2782 47.3532 21.3474 46.7128 22.1174C46.0832 22.8871 45.219 23.2827 44.1516 23.2827C43.1036 23.2827 42.2512 22.9011 41.6245 22.1582L41.5908 22.1174C40.9503 21.3474 40.6301 20.2782 40.6301 18.9629C40.6301 17.6718 40.939 16.6176 41.5561 15.8509L41.5908 15.8087C42.2201 15.0389 43.0848 14.6431 44.1516 14.6431C45.219 14.6431 46.0832 15.0387 46.7128 15.8087C47.3532 16.5787 47.6732 17.6478 47.6732 18.9629ZM84.7023 14.1834C83.8805 13.7345 82.963 13.4989 81.9705 13.4989C81.0043 13.4989 80.0985 13.712 79.303 14.1478L79.2385 14.1834C78.417 14.6325 77.7661 15.2847 77.2859 16.108C76.8056 16.9314 76.5601 17.8938 76.5601 18.9629C76.5601 20.0322 76.8056 20.9947 77.2859 21.818C77.7659 22.6414 78.417 23.2936 79.2388 23.7425C80.0603 24.1916 80.9781 24.4269 81.9705 24.4269C82.9368 24.4269 83.8425 24.214 84.6381 23.7785L84.7025 23.7427C85.5241 23.2936 86.175 22.6414 86.6552 21.818C87.1354 20.9947 87.3808 20.0322 87.3808 18.9629C87.3808 17.8938 87.1354 16.9314 86.6552 16.108C86.1752 15.2847 85.5134 14.6325 84.7023 14.1836V14.1834ZM85.4921 18.9629C85.4921 20.2782 85.1719 21.3474 84.5316 22.1174C83.9019 22.8871 83.0376 23.2827 81.9705 23.2827C80.9223 23.2827 80.0699 22.9011 79.4434 22.1582L79.4094 22.1174C78.7692 21.3474 78.449 20.2782 78.449 18.9629C78.449 17.6611 78.7576 16.6171 79.3748 15.8509L79.4094 15.8087C80.039 15.0389 80.9034 14.6431 81.9705 14.6431C83.0376 14.6431 83.9019 15.0387 84.5316 15.8087C85.1612 16.5787 85.4921 17.6478 85.4921 18.9629V18.9629ZM69.4508 13.4991C68.5908 13.4991 67.8063 13.6816 67.097 14.0469C66.3876 14.412 65.8288 14.9062 65.4312 15.54C65.0357 16.155 64.8267 16.8713 64.8294 17.6025C64.8294 18.2685 64.9799 18.8807 65.2916 19.4287C65.5923 19.9549 66.0008 20.3954 66.5168 20.7605L64.9799 22.8445C64.7865 23.1022 64.765 23.446 64.9045 23.7254C65.055 24.0154 65.3345 24.1871 65.657 24.1871H66.0976C65.6856 24.4651 65.3525 24.7925 65.1174 25.1782L65.0872 25.2291C64.8079 25.6909 64.6681 26.1745 64.6681 26.6685C64.6681 27.5758 65.0621 28.3278 65.8396 28.8936L65.8825 28.9242C66.6781 29.4936 67.7956 29.7836 69.2034 29.7836C70.1814 29.7836 71.1165 29.6225 71.9656 29.3109C72.8008 29.0085 73.4836 28.5638 73.995 27.9874L74.0394 27.9362C74.5661 27.3345 74.835 26.604 74.835 25.7662C74.835 24.8854 74.5125 24.2622 73.7603 23.6609C73.1154 23.156 72.1052 22.8876 70.8476 22.8876H66.549C66.5427 22.887 66.5367 22.8845 66.5319 22.8805L66.5274 22.8767L66.5254 22.8722C66.5232 22.8654 66.5196 22.8522 66.5274 22.8445L67.6452 21.3407C67.9099 21.464 68.1874 21.5576 68.4728 21.6198C68.7305 21.6736 69.0208 21.6951 69.3432 21.6951C70.2459 21.6951 71.0628 21.5125 71.7721 21.1474C72.4814 20.782 73.051 20.288 73.4594 19.654C73.8676 19.0311 74.0719 18.3329 74.0719 17.5918C74.0719 16.7969 73.6852 15.3467 72.6319 14.6056C72.6319 14.5989 72.6356 14.5965 72.6388 14.5954L72.6425 14.5947L74.9532 14.8525V13.7891H71.2561C70.6759 13.6065 70.0739 13.4991 69.4508 13.4991V13.4991ZM70.7403 20.2236C70.3319 20.4382 69.8914 20.5565 69.4508 20.5565C68.7308 20.5565 68.0965 20.2987 67.5592 19.7938C67.0219 19.2889 66.7532 18.5478 66.7532 17.6025C66.7532 16.6571 67.0219 15.9158 67.5592 15.4111C68.0965 14.9062 68.7305 14.6485 69.4508 14.6485C69.8832 14.6485 70.2961 14.7471 70.6892 14.9538L70.7403 14.9814C71.1488 15.1962 71.4819 15.5294 71.7505 15.9698C72.0083 16.4102 72.1483 16.958 72.1483 17.6025C72.1483 18.2578 72.0192 18.8056 71.7505 19.2351C71.4928 19.6756 71.1488 20.0085 70.7403 20.2234V20.2236ZM67.8279 24.1765H70.7403C71.5463 24.1765 72.0623 24.3376 72.4061 24.6814C72.7501 25.0251 72.9219 25.4869 72.9219 26.024C72.9219 26.8082 72.6103 27.4529 71.987 27.936C71.3636 28.4196 70.5254 28.6665 69.4936 28.6665C68.5908 28.6665 67.8385 28.4625 67.2903 28.0758C66.7423 27.6891 66.463 27.098 66.463 26.3462C66.463 25.8736 66.5919 25.4331 66.8499 25.0465C67.1076 24.6598 67.4194 24.3805 67.8276 24.1765H67.8279Z" fill="#001E2B"/>
</g>
<defs>
<clipPath id="clip0_14_465">
<rect width="113.778" height="30" fill="white" transform="translate(0.60144)"/>
</clipPath>
</defs>
</svg>
