<svg width="34" height="30" viewBox="0 0 34 30" fill="none" xmlns="http://www.w3.org/2000/svg">
<g clip-path="url(#clip0_14_417)">
<path d="M27.6951 9.71366C27.3367 9.59067 26.9751 9.47673 26.6109 9.37195C26.6721 9.12195 26.7284 8.87498 26.7784 8.63235C27.5992 4.648 27.0626 1.43813 25.2299 0.381293C23.4726 -0.631865 20.5988 0.424582 17.6964 2.9505C17.4104 3.19989 17.1307 3.45646 16.8576 3.71998C16.6748 3.54475 16.4888 3.37292 16.2996 3.20458C13.2578 0.503793 10.2088 -0.634497 8.37803 0.425372C6.62237 1.44169 6.1025 4.45919 6.84145 8.23524C6.91496 8.60922 6.99797 8.98127 7.0904 9.35103C6.65882 9.47366 6.24237 9.60419 5.84382 9.74313C2.2775 10.9866 0 12.9351 0 14.9563C0 17.0438 2.445 19.1376 6.15947 20.4072C6.46061 20.5097 6.76426 20.6047 7.07013 20.6921C6.97079 21.0903 6.8826 21.4913 6.80566 21.8945C6.10118 25.605 6.65132 28.5512 8.40224 29.561C10.2107 30.6039 13.2459 29.5321 16.2013 26.9485C16.441 26.7385 16.6753 26.5225 16.9042 26.3008C17.1999 26.5861 17.5036 26.8631 17.8147 27.1316C20.6776 29.595 23.505 30.5897 25.2542 29.5771C27.0609 28.5312 27.6482 25.3662 26.8858 21.5155C26.8257 21.2138 26.7584 20.9137 26.6838 20.6152C26.897 20.5521 27.1062 20.4871 27.3101 20.4195C31.1717 19.1401 33.6842 17.0717 33.6842 14.9563C33.6842 12.9277 31.3332 10.966 27.6951 9.71366V9.71366ZM26.8576 19.0537C26.6734 19.1146 26.4845 19.1734 26.2918 19.2306C25.8655 17.881 25.2903 16.446 24.5862 14.9633C25.258 13.5159 25.8112 12.0992 26.2255 10.7584C26.5701 10.8581 26.9045 10.9633 27.2268 11.0742C30.3439 12.1473 32.2453 13.7338 32.2453 14.9563C32.2453 16.2584 30.1918 17.9488 26.8576 19.0537V19.0537ZM25.4742 21.795C25.8113 23.4976 25.8593 25.0371 25.6361 26.2406C25.4355 27.3221 25.0321 28.043 24.5332 28.3318C23.4717 28.9463 21.2016 28.1476 18.7533 26.0408C18.4639 25.7912 18.1814 25.5337 17.9063 25.2684C18.8555 24.2304 19.8041 23.0237 20.7299 21.6834C22.3583 21.5389 23.8967 21.3026 25.2918 20.9801C25.359 21.2503 25.4199 21.522 25.4742 21.795V21.795ZM11.4837 28.2256C10.4466 28.5918 9.62053 28.6023 9.12118 28.3145C8.05868 27.7017 7.61697 25.336 8.21947 22.1629C8.29109 21.7879 8.3731 21.415 8.46539 21.0446C9.84513 21.3498 11.3724 21.5693 13.0046 21.7017C13.9367 23.0131 14.9126 24.2185 15.8962 25.2741C15.6872 25.4763 15.4732 25.6734 15.2545 25.8651C13.9475 27.0075 12.6379 27.818 11.4837 28.2256V28.2256ZM6.625 19.0456C4.9825 18.4842 3.62605 17.7546 2.69632 16.9584C1.86079 16.243 1.43908 15.5326 1.43908 14.9563C1.43908 13.7297 3.26763 12.1652 6.3175 11.102C6.68763 10.973 7.075 10.8513 7.47697 10.7371C7.89855 12.1081 8.45145 13.5417 9.11868 14.9913C8.44276 16.4623 7.88197 17.9188 7.45632 19.306C7.17712 19.2261 6.89993 19.1392 6.625 19.0456V19.0456ZM8.25368 7.95879C7.62066 4.72366 8.04105 2.28327 9.09908 1.67077C10.2259 1.0184 12.7178 1.94853 15.3442 4.28064C15.5155 4.43305 15.684 4.58856 15.8496 4.74708C14.8709 5.798 13.9039 6.99445 12.9801 8.29814C11.3959 8.44498 9.87947 8.68077 8.48526 8.99669C8.39936 8.65277 8.32215 8.30674 8.25368 7.95892V7.95879ZM22.7836 11.5467C22.4542 10.9779 22.1127 10.4162 21.7592 9.86208C22.8339 9.998 23.8637 10.1784 24.8307 10.3989C24.5404 11.3295 24.1786 12.3022 23.7526 13.2996C23.4413 12.7089 23.1182 12.1245 22.7836 11.5467V11.5467ZM16.8583 5.7755C17.522 6.49458 18.1867 7.29735 18.8405 8.1684C17.5142 8.10576 16.1857 8.1055 14.8593 8.16761C15.5138 7.30458 16.1842 6.50287 16.8583 5.7755ZM10.895 11.5566C10.5645 12.1297 10.2475 12.7105 9.94408 13.2984C9.52513 12.3046 9.16658 11.3273 8.87382 10.3837C9.83487 10.1687 10.8597 9.99287 11.9276 9.85945C11.5702 10.4169 11.2259 10.9828 10.895 11.5564V11.5566ZM11.9583 20.1555C10.855 20.0323 9.81474 19.8656 8.85395 19.6564C9.15132 18.6959 9.51776 17.6979 9.94579 16.6827C10.2504 17.2711 10.5688 17.8522 10.9007 18.4256C11.242 19.0151 11.5954 19.5925 11.9583 20.1555ZM16.898 24.2384C16.2159 23.5026 15.5357 22.6885 14.8713 21.813C15.5163 21.8383 16.1738 21.8512 16.8421 21.8512C17.5287 21.8512 18.2074 21.8358 18.8754 21.806C18.2195 22.6973 17.5572 23.5126 16.898 24.2384ZM23.7662 16.6309C24.2164 17.6572 24.5959 18.65 24.8972 19.5941C23.9207 19.817 22.8662 19.9964 21.7551 20.1297C22.1112 19.5653 22.4559 18.9939 22.7892 18.4158C23.1281 17.8281 23.4538 17.233 23.7662 16.6309V16.6309ZM21.5428 17.6968C21.0325 18.5832 20.4936 19.4527 19.9268 20.3041C18.9002 20.3768 17.8713 20.4129 16.8421 20.4123C15.7938 20.4123 14.7742 20.3797 13.7924 20.316C13.2108 19.4667 12.6616 18.5956 12.1459 17.7047H12.1461C11.6328 16.8185 11.1534 15.9132 10.7088 14.9906C11.1522 14.0679 11.6302 13.1621 12.1417 12.2752L12.1416 12.2754C12.6529 11.3883 13.1977 10.521 13.7749 9.67524C14.7766 9.59945 15.8038 9.55998 16.842 9.55998H16.8421C17.885 9.55998 18.9136 9.59985 19.915 9.67616C20.4863 10.5206 21.0277 11.385 21.538 12.2676C22.0512 13.1525 22.5355 14.0539 22.9901 14.9702C22.5402 15.896 22.0574 16.8054 21.5428 17.6968V17.6968ZM24.5112 1.62787C25.6391 2.2784 26.0778 4.90169 25.3691 8.34182C25.3238 8.56129 25.273 8.78485 25.2178 9.01156C23.8201 8.68892 22.3026 8.44906 20.7138 8.29998C19.7883 6.98195 18.8292 5.78366 17.8664 4.74629C18.1188 4.50307 18.3771 4.26616 18.6412 4.03577C21.128 1.87169 23.4522 1.01721 24.5112 1.62787V1.62787ZM16.8421 11.9484C18.5033 11.9484 19.85 13.2951 19.85 14.9563C19.85 16.6175 18.5033 17.9642 16.8421 17.9642C15.1809 17.9642 13.8342 16.6175 13.8342 14.9563C13.8342 13.2951 15.1809 11.9484 16.8421 11.9484V11.9484Z" fill="#00D8FF"/>
</g>
<defs>
<clipPath id="clip0_14_417">
<rect width="33.6842" height="30" fill="white"/>
</clipPath>
</defs>
</svg>
