<svg width="49" height="30" viewBox="0 0 49 30" fill="none" xmlns="http://www.w3.org/2000/svg">
<g clip-path="url(#clip0_17_505)">
<path d="M24.1826 29.9135C24.017 29.9135 23.8624 29.8693 23.7188 29.7921L22.2502 28.9198C22.0293 28.7982 22.1398 28.7541 22.2061 28.732C22.5042 28.6327 22.5594 28.6105 22.8686 28.4339C22.9017 28.4118 22.946 28.4228 22.979 28.4449L24.1054 29.1185C24.1495 29.1406 24.2047 29.1406 24.2378 29.1185L28.6437 26.5677C28.6878 26.5457 28.71 26.5014 28.71 26.4463V21.3558C28.71 21.3005 28.6878 21.2565 28.6437 21.2343L24.2378 18.6946C24.1936 18.6725 24.1384 18.6725 24.1054 18.6946L19.6995 21.2343C19.6553 21.2564 19.6332 21.3116 19.6332 21.3557V26.4462C19.6332 26.4904 19.6553 26.5456 19.6995 26.5677L20.9031 27.2634C21.5546 27.5946 21.9631 27.2081 21.9631 26.8217V21.7974C21.9631 21.7312 22.0184 21.6649 22.0956 21.6649H22.6588C22.7251 21.6649 22.7913 21.7201 22.7913 21.7974V26.8217C22.7913 27.694 22.3164 28.202 21.4883 28.202C21.2343 28.202 21.0356 28.202 20.4724 27.9258L19.313 27.2634C19.0259 27.0978 18.8492 26.7885 18.8492 26.4573V21.3668C18.8492 21.0356 19.0259 20.7263 19.313 20.5607L23.7188 18.01C23.9949 17.8554 24.3704 17.8554 24.6464 18.01L29.0522 20.5607C29.3393 20.7263 29.5161 21.0356 29.5161 21.3668V26.4573C29.5161 26.7885 29.3393 27.0978 29.0522 27.2634L24.6464 29.8141C24.5028 29.8804 24.3372 29.9135 24.1827 29.9135H24.1826ZM25.5408 26.4131C23.6084 26.4131 23.2109 25.5298 23.2109 24.7789C23.2109 24.7126 23.2661 24.6464 23.3434 24.6464H23.9176C23.9838 24.6464 24.0391 24.6905 24.0391 24.7568C24.1274 25.342 24.3814 25.6291 25.5519 25.6291C26.4794 25.6291 26.877 25.4193 26.877 24.9224C26.877 24.6353 26.7665 24.4256 25.32 24.282C24.1163 24.1605 23.3655 23.8955 23.3655 22.9349C23.3655 22.0404 24.1164 21.5103 25.3752 21.5103C26.7885 21.5103 27.4843 21.9963 27.5727 23.0562C27.5727 23.0894 27.5616 23.1225 27.5395 23.1557C27.5173 23.1777 27.4843 23.1998 27.4511 23.1998H26.8769C26.8217 23.1998 26.7665 23.1557 26.7555 23.1004C26.623 22.4932 26.2806 22.2943 25.3752 22.2943C24.3593 22.2943 24.2378 22.6478 24.2378 22.9127C24.2378 23.2329 24.3814 23.3323 25.7506 23.509C27.1088 23.6857 27.7493 23.9397 27.7493 24.8892C27.7382 25.861 26.9432 26.4131 25.5408 26.4131Z" fill="#539E43"/>
<path d="M10.5123 10.0044C10.5123 9.80563 10.4018 9.61779 10.2252 9.51843L5.54324 6.82416C5.46585 6.77993 5.37757 6.75786 5.28929 6.74678H5.24506C5.15678 6.74678 5.0684 6.77993 4.99111 6.82416L0.309197 9.51843C0.132445 9.61779 0.0220947 9.80553 0.0220947 10.0044L0.0331775 17.248C0.0331775 17.3474 0.0884005 17.4467 0.176681 17.491C0.265057 17.5462 0.375407 17.5462 0.452795 17.491L3.23544 15.9009C3.41209 15.8015 3.52254 15.6138 3.52254 15.4151V12.0251C3.52254 11.8263 3.63289 11.6386 3.80964 11.5392L4.99111 10.8546C5.07948 10.7994 5.17885 10.7772 5.27821 10.7772C5.37757 10.7772 5.47694 10.7994 5.55432 10.8546L6.73579 11.5392C6.91254 11.6386 7.02289 11.8262 7.02289 12.0251V15.4151C7.02289 15.6138 7.13334 15.8015 7.30999 15.9009L10.0926 17.491C10.1356 17.518 10.1854 17.5324 10.2362 17.5324C10.287 17.5324 10.3367 17.518 10.3797 17.491C10.4681 17.4467 10.5233 17.3474 10.5233 17.248L10.5123 10.0044ZM33.0164 0.0331768C32.9281 -0.0110589 32.8176 -0.0110589 32.7402 0.0331768C32.652 0.0883997 32.5967 0.17668 32.5967 0.276043V7.45359C32.5967 7.5198 32.5637 7.58601 32.4974 7.63025C32.4312 7.6633 32.3649 7.6633 32.2987 7.63025L31.1282 6.95668C31.0424 6.90782 30.9453 6.88213 30.8466 6.88213C30.7478 6.88213 30.6508 6.90782 30.565 6.95668L25.8831 9.66203C25.7064 9.76139 25.5959 9.94913 25.5959 10.1479V15.5475C25.5959 15.7462 25.7064 15.934 25.8831 16.0334L30.565 18.7388C30.6508 18.7876 30.7478 18.8133 30.8466 18.8133C30.9453 18.8133 31.0424 18.7876 31.1282 18.7388L35.8101 16.0334C35.9867 15.934 36.0972 15.7463 36.0972 15.5475V2.08703C36.0972 1.87722 35.9867 1.68958 35.8101 1.59012L33.0165 0.0331768H33.0164ZM32.5858 13.7697C32.5858 13.825 32.5637 13.8691 32.5195 13.8912L30.9184 14.8187C30.896 14.8296 30.8715 14.8353 30.8466 14.8353C30.8217 14.8353 30.7971 14.8296 30.7748 14.8187L29.1737 13.8912C29.1295 13.8691 29.1074 13.8139 29.1074 13.7697V11.9146C29.1074 11.8594 29.1295 11.8152 29.1737 11.7932L30.7748 10.8656C30.7971 10.8547 30.8217 10.849 30.8466 10.849C30.8715 10.849 30.896 10.8547 30.9184 10.8656L32.5195 11.7932C32.5637 11.8152 32.5858 11.8705 32.5858 11.9146V13.7697ZM48.597 11.8705C48.7737 11.7711 48.8731 11.5834 48.8731 11.3845V10.0706C48.8731 9.87184 48.7626 9.6841 48.597 9.58474L43.9482 6.89047C43.8624 6.84161 43.7653 6.81592 43.6666 6.81592C43.5679 6.81592 43.4708 6.84161 43.385 6.89047L38.7031 9.59572C38.5263 9.69509 38.416 9.88283 38.416 10.0816V15.4813C38.416 15.68 38.5264 15.8677 38.7031 15.9671L43.3518 18.6172C43.5286 18.7166 43.7384 18.7166 43.9041 18.6172L46.7198 17.0494C46.8081 17.0052 46.8634 16.9058 46.8634 16.8064C46.8634 16.7071 46.8081 16.6077 46.7198 16.5635L42.0158 13.8581C41.9274 13.8029 41.8722 13.7146 41.8722 13.6152V11.9258C41.8722 11.8264 41.9274 11.7271 42.0158 11.6828L43.4844 10.8436C43.5273 10.8165 43.5771 10.8022 43.6279 10.8022C43.6787 10.8022 43.7285 10.8165 43.7715 10.8436L45.2401 11.6828C45.3285 11.738 45.3836 11.8263 45.3836 11.9258V13.2509C45.3836 13.3502 45.4388 13.4496 45.5272 13.4937C45.5702 13.5208 45.62 13.5351 45.6708 13.5351C45.7216 13.5351 45.7713 13.5208 45.8143 13.4937L48.597 11.8705V11.8705Z" fill="white"/>
<path d="M43.5948 11.6164C43.6112 11.6056 43.6304 11.5999 43.6501 11.5999C43.6697 11.5999 43.6889 11.6056 43.7053 11.6164L44.5998 12.1354C44.6328 12.1576 44.6549 12.1906 44.6549 12.2348V13.2728C44.6549 13.317 44.6329 13.3501 44.5998 13.3722L43.7053 13.8912C43.6889 13.902 43.6697 13.9077 43.6501 13.9077C43.6304 13.9077 43.6112 13.902 43.5948 13.8912L42.7005 13.3722C42.6673 13.3501 42.6453 13.317 42.6453 13.2728V12.2349C42.6453 12.1906 42.6672 12.1575 42.7005 12.1355L43.5948 11.6164V11.6164Z" fill="#539E43"/>
<path d="M18.3411 6.91266C18.2553 6.86382 18.1583 6.83813 18.0596 6.83813C17.9609 6.83813 17.8638 6.86382 17.778 6.91266L13.1293 9.59575C12.9525 9.69511 12.8531 9.88285 12.8531 10.0816V15.4592C12.8531 15.6579 12.9636 15.8457 13.1293 15.945L17.778 18.6283C17.8638 18.6772 17.9609 18.7029 18.0596 18.7029C18.1583 18.7029 18.2553 18.6772 18.3411 18.6283L22.99 15.945C23.1667 15.8457 23.2661 15.6579 23.2661 15.4592V10.0817C23.2661 9.88295 23.1556 9.69521 22.99 9.59584L18.3411 6.91266Z" fill="url(#paint0_linear_17_505)"/>
</g>
<defs>
<linearGradient id="paint0_linear_17_505" x1="19.9535" y1="8.91292" x2="14.858" y2="16.9194" gradientUnits="userSpaceOnUse">
<stop stop-color="#41873F"/>
<stop offset="0.3288" stop-color="#418B3D"/>
<stop offset="0.6352" stop-color="#419637"/>
<stop offset="0.9319" stop-color="#3FA92D"/>
<stop offset="1" stop-color="#3FAE2A"/>
</linearGradient>
<clipPath id="clip0_17_505">
<rect width="48.9172" height="30" fill="white"/>
</clipPath>
</defs>
</svg>
