<svg width="31" height="30" viewBox="0 0 31 30" fill="none" xmlns="http://www.w3.org/2000/svg">
<path d="M6.1217 23.0625L6.28108 22.8403L13.7998 8.57716L13.8158 8.42622L10.5017 2.20122C10.441 2.08739 10.3461 1.99552 10.2303 1.9386C10.1146 1.88168 9.98387 1.8626 9.85667 1.88406C9.72948 1.90552 9.61225 1.96643 9.52157 2.05817C9.43089 2.14992 9.37136 2.26785 9.35139 2.39529L6.1217 23.0625Z" fill="#FFC24A"/>
<path d="M6.21545 22.8937L6.33545 22.6593L13.7764 8.5443L10.4708 2.29493C10.4163 2.18625 10.328 2.09815 10.2192 2.04385C10.1104 1.98954 9.98697 1.97194 9.86735 1.99369C9.74772 2.01544 9.63836 2.07537 9.55566 2.16449C9.47295 2.25362 9.42135 2.36714 9.40858 2.48805L6.21545 22.8937Z" fill="#FFA712"/>
<path d="M16.2317 13.1344L18.6992 10.6032L16.2308 5.89601C16.1764 5.7947 16.0956 5.71003 15.997 5.651C15.8984 5.59197 15.7856 5.56079 15.6706 5.56079C15.5556 5.56079 15.4428 5.59197 15.3442 5.651C15.2456 5.71003 15.1648 5.7947 15.1104 5.89601L13.7914 8.41038V8.62507L16.2317 13.1344Z" fill="#F4BD62"/>
<path d="M16.1877 13.0313L18.5867 10.575L16.1877 6.00002C16.1484 5.90099 16.0813 5.81544 15.9945 5.75367C15.9077 5.6919 15.8049 5.65655 15.6985 5.6519C15.5921 5.64724 15.4866 5.67347 15.3947 5.72742C15.3029 5.78137 15.2286 5.86074 15.1808 5.95596L13.8552 8.5144L13.8158 8.64471L16.1877 13.0313Z" fill="#FFA50E"/>
<path d="M6.12354 23.0634L6.19572 22.9903L6.45729 22.8844L16.076 13.3012L16.1979 12.9694L13.7988 8.39624L6.12354 23.0634V23.0634Z" fill="#F6820C"/>
<path d="M16.5392 27.8963L25.2467 23.041L22.7586 7.73068C22.7407 7.62275 22.6935 7.52182 22.6221 7.43897C22.5506 7.35613 22.4578 7.29457 22.3536 7.26105C22.2495 7.22754 22.1381 7.22336 22.0318 7.24898C21.9254 7.27461 21.8282 7.32904 21.7508 7.4063L6.1217 23.0626L14.7776 27.8954C15.0467 28.0455 15.3498 28.1244 15.658 28.1244C15.9661 28.1244 16.2692 28.0455 16.5383 27.8954" fill="#FDE068"/>
<path d="M25.167 23.0006L22.6995 7.80559C22.6952 7.70236 22.6603 7.60274 22.5993 7.51934C22.5383 7.43594 22.4539 7.37251 22.3569 7.33708C22.2598 7.30165 22.1544 7.29581 22.054 7.3203C21.9537 7.34479 21.8628 7.3985 21.793 7.47465L6.21545 23.0334L14.7758 27.8147C15.0427 27.9636 15.3434 28.0418 15.649 28.0418C15.9547 28.0418 16.2554 27.9636 16.5223 27.8147L25.167 23.0006Z" fill="#FCCA3F"/>
<path d="M16.5392 27.75C16.2701 27.9001 15.9671 27.979 15.6589 27.979C15.3507 27.979 15.0477 27.9001 14.7786 27.75L6.19295 22.9894L6.1217 23.0625L14.7776 27.8953C15.0467 28.0455 15.3498 28.1243 15.658 28.1243C15.9661 28.1243 16.2692 28.0455 16.5383 27.8953L25.2467 23.0409L25.2251 22.9097L16.5392 27.75Z" fill="#EEAB37"/>
</svg>
